<svg xmlns="http://www.w3.org/2000/svg" width="1160" height="460" viewBox="0 0 1160 460">
  <rect width="100%" height="100%" fill="#f8fbff"/>
  <text x="48" y="26" font-family="Segoe UI, Arial" font-size="18" fill="#1f2937" font-weight="700">MVC Upper Envelope (Demo Run)</text>
  <line x1="48" y1="412" x2="1112" y2="412" stroke="#94a3b8" stroke-width="1"/>
  <line x1="48" y1="48" x2="48" y2="412" stroke="#94a3b8" stroke-width="1"/>
  <polyline fill="none" stroke="#0b7ad1" stroke-width="2" points="48.00,189.99 53.07,190.24 58.14,190.49 63.20,190.74 68.26,191.00 73.31,191.25 78.36,191.51 83.41,191.77 88.45,192.03 93.49,192.29 98.52,192.55 103.55,192.82 108.58,193.08 113.60,193.35 118.62,193.61 123.63,193.88 128.64,194.15 133.65,194.42 138.65,194.69 143.65,194.96 148.64,195.21 153.63,195.36 158.62,195.29 163.61,194.80 168.62,193.77 173.64,192.34 178.69,190.90 183.76,189.86 188.83,189.37 193.92,189.32 199.00,189.51 204.07,189.79 209.14,190.09 214.21,190.40 219.27,190.71 224.33,191.03 229.39,191.35 234.43,191.66 239.48,191.98 244.52,192.30 249.55,192.63 254.58,192.95 259.60,193.27 264.62,193.59 269.64,193.87 274.65,193.94 279.66,193.28 284.70,190.73 289.80,184.58 295.03,173.60 300.46,174.06 306.14,142.95 312.03,130.71 318.07,123.59 324.18,120.63 330.32,119.93 336.46,120.10 342.60,120.52 348.73,120.98 354.85,121.45 360.97,121.93 367.08,122.41 373.18,122.89 379.27,123.38 385.36,123.87 391.44,124.36 397.51,124.85 403.57,125.34 409.63,125.84 415.68,126.34 421.72,126.84 427.75,127.35 433.78,127.85 439.80,128.36 445.81,128.87 451.81,129.39 457.80,129.90 463.79,130.42 469.77,130.94 475.74,131.46 481.70,131.98 487.66,132.51 493.60,133.04 499.54,133.57 505.47,134.10 511.39,134.63 517.31,135.17 523.21,135.71 529.11,136.25 535.00,136.79 540.88,137.33 546.75,137.88 552.62,138.42 558.47,138.96 564.32,139.45 570.16,139.69 575.99,139.08 581.81,136.27 587.62,129.29 593.42,138.51 599.22,159.75 605.02,130.94 610.82,62.89 616.63,53.20 622.43,49.06 628.23,48.00 634.03,48.12 639.82,48.56 645.61,49.06 651.38,49.58 657.16,50.09 662.92,50.61 668.68,51.13 674.43,51.65 680.18,52.18 685.92,52.70 691.65,53.22 697.38,53.75 703.10,54.28 708.82,54.87 714.52,55.70 720.20,57.39 725.83,61.20 731.35,68.88 736.65,101.33 741.66,144.88 746.34,146.30 750.76,126.81 754.99,134.44 759.13,138.05 763.24,139.53 767.32,140.22 771.40,140.69 775.48,141.12 779.55,141.54 783.62,141.96 787.68,142.38 791.74,142.81 795.79,143.23 799.84,143.65 803.88,144.07 807.92,144.49 811.95,144.92 815.98,145.34 820.01,145.76 824.03,146.16 828.05,146.53 832.06,146.78 836.07,161.48 840.09,215.05 844.10,223.86 848.12,189.95 852.14,146.03 856.16,146.16 860.18,146.45 864.19,146.82 868.20,147.23 872.21,147.64 876.21,148.05 880.21,148.47 884.20,148.88 888.19,149.29 892.17,149.71 896.15,150.12 900.12,150.53 904.09,150.94 908.06,151.35 912.02,151.76 915.98,152.18 919.93,152.62 923.88,153.19 927.81,154.21 931.71,156.31 935.53,160.38 939.23,210.15 942.75,238.45 946.08,225.96 949.25,190.34 952.31,194.30 955.32,196.21 958.30,197.05 961.28,197.50 964.25,197.84 967.22,198.17 970.19,198.49 973.15,198.81 976.11,199.13 979.07,199.44 982.03,199.76 984.98,200.08 987.93,200.40 990.87,200.71 993.81,201.03 996.75,201.36 999.69,201.76 1002.62,202.48 1005.54,204.29 1008.44,313.88 1011.27,374.20 1014.00,406.53 1016.59,406.87 1019.03,392.86 1021.36,357.00 1023.61,279.02 1025.83,281.17 1028.03,282.15 1030.22,282.59 1032.42,282.87 1034.61,283.13 1036.79,283.38 1038.98,283.64 1041.16,283.89 1043.34,284.14 1045.52,284.40 1047.69,284.65 1049.87,284.91 1052.04,285.16 1054.21,285.41 1056.37,285.68 1058.54,285.99 1060.69,286.58 1062.85,288.04 1064.97,348.77 1067.06,390.47 1069.06,408.97 1070.96,412.00 1072.76,400.47 1074.49,367.17 1076.18,338.78 1077.85,340.07 1079.51,340.59 1081.17,340.84 1082.83,341.02 1084.49,341.19 1086.14,341.36 1087.79,341.53 1089.45,341.69 1091.10,341.86 1092.74,342.03 1094.39,342.20 1096.04,342.36 1097.68,342.53 1099.32,342.70 1100.96,342.87 1102.60,343.04 1104.24,343.21 1105.88,343.37 1107.51,343.54 1109.15,343.71 1110.78,343.88 1112.00,344.01"/>
  <text x="580" y="450" font-family="Segoe UI, Arial" font-size="12" fill="#475569">Path coordinate s [0.000 .. 1.000]</text>
  <text x="8" y="230" transform="rotate(-90 8 230)" font-family="Segoe UI, Arial" font-size="12" fill="#475569">Velocity upper bound [0.393 .. 1.700]</text>
</svg>