<svg xmlns="http://www.w3.org/2000/svg" width="1160" height="500" viewBox="0 0 1160 500">
  <rect width="100%" height="100%" fill="#f8fbff"/>
  <text x="56" y="28" font-family="Segoe UI, Arial" font-size="18" fill="#1f2937" font-weight="700">Uniform Playback Joint Trajectory qUniform(t) (Demo Run)</text>
  <line x1="56" y1="444" x2="1104" y2="444" stroke="#94a3b8" stroke-width="1"/>
  <line x1="56" y1="56" x2="56" y2="444" stroke="#94a3b8" stroke-width="1"/>
  <polyline fill="none" stroke="#0b7ad1" stroke-width="1.8" points="56.00,281.04 58.84,281.04 61.68,281.04 64.52,281.03 67.35,281.03 70.19,281.03 73.03,281.02 75.87,281.02 78.71,281.01 81.55,281.00 84.39,280.98 87.22,280.97 90.06,280.94 92.90,280.92 95.74,280.89 98.58,280.86 101.42,280.82 104.26,280.78 107.09,280.74 109.93,280.69 112.77,280.63 115.61,280.58 118.45,280.52 121.29,280.45 124.13,280.38 126.96,280.31 129.80,280.23 132.64,280.15 135.48,280.07 138.32,279.98 141.16,279.89 144.00,279.79 146.83,279.69 149.67,279.58 152.51,279.48 155.35,279.36 158.19,279.25 161.03,279.13 163.87,279.00 166.70,278.87 169.54,278.74 172.38,278.60 175.22,278.46 178.06,278.32 180.90,278.17 183.74,278.01 186.57,277.86 189.41,277.70 192.25,277.53 195.09,277.36 197.93,277.19 200.77,277.01 203.61,276.83 206.44,276.65 209.28,276.46 212.12,276.26 214.96,276.07 217.80,275.86 220.64,275.66 223.48,275.45 226.31,275.24 229.15,275.03 231.99,274.81 234.83,274.60 237.67,274.38 240.51,274.16 243.35,273.94 246.18,273.71 249.02,273.49 251.86,273.27 254.70,273.05 257.54,272.83 260.38,272.61 263.22,272.39 266.05,272.17 268.89,271.96 271.73,271.74 274.57,271.53 277.41,271.33 280.25,271.12 283.09,270.92 285.92,270.73 288.76,270.53 291.60,270.34 294.44,270.16 297.28,269.98 300.12,269.80 302.96,269.63 305.79,269.46 308.63,269.29 311.47,269.12 314.31,268.96 317.15,268.80 319.99,268.64 322.83,268.47 325.66,268.32 328.50,268.16 331.34,268.00 334.18,267.84 337.02,267.68 339.86,267.52 342.70,267.35 345.53,267.19 348.37,267.03 351.21,266.86 354.05,266.69 356.89,266.52 359.73,266.34 362.57,266.16 365.40,265.98 368.24,265.80 371.08,265.61 373.92,265.41 376.76,265.22 379.60,265.02 382.44,264.81 385.27,264.61 388.11,264.39 390.95,264.18 393.79,263.96 396.63,263.73 399.47,263.51 402.31,263.27 405.14,263.04 407.98,262.80 410.82,262.55 413.66,262.30 416.50,262.05 419.34,261.80 422.18,261.53 425.01,261.27 427.85,261.00 430.69,260.73 433.53,260.45 436.37,260.17 439.21,259.89 442.05,259.60 444.88,259.31 447.72,259.02 450.56,258.72 453.40,258.43 456.24,258.13 459.08,257.83 461.92,257.53 464.75,257.23 467.59,256.93 470.43,256.63 473.27,256.33 476.11,256.03 478.95,255.73 481.79,255.43 484.62,255.14 487.46,254.84 490.30,254.55 493.14,254.27 495.98,253.98 498.82,253.70 501.66,253.42 504.49,253.14 507.33,252.86 510.17,252.59 513.01,252.32 515.85,252.06 518.69,251.80 521.53,251.55 524.36,251.30 527.20,251.06 530.04,250.82 532.88,250.58 535.72,250.35 538.56,250.11 541.40,249.88 544.23,249.65 547.07,249.41 549.91,249.17 552.75,248.93 555.59,248.69 558.43,248.44 561.27,248.19 564.10,247.94 566.94,247.68 569.78,247.42 572.62,247.15 575.46,246.89 578.30,246.62 581.14,246.34 583.97,246.06 586.81,245.78 589.65,245.50 592.49,245.21 595.33,244.92 598.17,244.62 601.01,244.32 603.84,244.02 606.68,243.72 609.52,243.41 612.36,243.10 615.20,242.78 618.04,242.46 620.88,242.14 623.71,241.81 626.55,241.48 629.39,241.15 632.23,240.81 635.07,240.47 637.91,240.12 640.75,239.77 643.58,239.42 646.42,239.07 649.26,238.71 652.10,238.34 654.94,237.98 657.78,237.61 660.62,237.23 663.45,236.86 666.29,236.48 669.13,236.09 671.97,235.70 674.81,235.31 677.65,234.92 680.49,234.52 683.32,234.12 686.16,233.72 689.00,233.32 691.84,232.92 694.68,232.51 697.52,232.10 700.36,231.70 703.19,231.29 706.03,230.88 708.87,230.47 711.71,230.07 714.55,229.66 717.39,229.26 720.23,228.85 723.06,228.45 725.90,228.05 728.74,227.65 731.58,227.25 734.42,226.86 737.26,226.47 740.10,226.08 742.93,225.69 745.77,225.31 748.61,224.93 751.45,224.55 754.29,224.17 757.13,223.80 759.97,223.42 762.80,223.05 765.64,222.69 768.48,222.33 771.32,221.99 774.16,221.65 777.00,221.33 779.84,221.01 782.67,220.71 785.51,220.40 788.35,220.10 791.19,219.80 794.03,219.49 796.87,219.19 799.71,218.88 802.54,218.57 805.38,218.25 808.22,217.94 811.06,217.62 813.90,217.30 816.74,216.97 819.58,216.64 822.41,216.31 825.25,215.98 828.09,215.64 830.93,215.30 833.77,214.95 836.61,214.61 839.45,214.26 842.28,213.90 845.12,213.55 847.96,213.19 850.80,212.83 853.64,212.46 856.48,212.09 859.32,211.72 862.15,211.34 864.99,210.96 867.83,210.58 870.67,210.18 873.51,209.76 876.35,209.32 879.19,208.86 882.02,208.39 884.86,207.92 887.70,207.45 890.54,206.98 893.38,206.50 896.22,206.03 899.06,205.55 901.89,205.08 904.73,204.60 907.57,204.13 910.41,203.66 913.25,203.19 916.09,202.72 918.93,202.25 921.76,201.78 924.60,201.31 927.44,200.85 930.28,200.38 933.12,199.91 935.96,199.45 938.80,198.98 941.63,198.52 944.47,198.05 947.31,197.59 950.15,197.12 952.99,196.65 955.83,196.17 958.67,195.70 961.50,195.22 964.34,194.75 967.18,194.27 970.02,193.79 972.86,193.31 975.70,192.83 978.54,192.35 981.37,191.88 984.21,191.40 987.05,190.92 989.89,190.45 992.73,189.97 995.57,189.49 998.41,188.98 1001.24,188.46 1004.08,187.93 1006.92,187.39 1009.76,186.85 1012.60,186.31 1015.44,185.76 1018.28,185.22 1021.11,184.67 1023.95,184.12 1026.79,183.58 1029.63,183.03 1032.47,182.48 1035.31,181.93 1038.15,181.38 1040.98,180.82 1043.82,180.22 1046.66,179.54 1049.50,178.82 1052.34,178.09 1055.18,177.36 1058.02,176.63 1060.85,175.89 1063.69,175.15 1066.53,174.41 1069.37,173.67 1072.21,172.93 1075.05,172.18 1077.89,171.38 1080.72,170.46 1083.56,169.50 1086.40,168.53 1089.24,167.57 1092.08,166.59 1094.92,165.62 1097.76,164.65 1100.59,163.67 1103.43,162.69 1104.00,162.52"/><polyline fill="none" stroke="#16a34a" stroke-width="1.8" points="56.00,444.00 58.84,444.00 61.68,444.00 64.52,444.00 67.35,444.00 70.19,444.00 73.03,443.99 75.87,443.99 78.71,443.99 81.55,443.98 84.39,443.97 87.22,443.96 90.06,443.95 92.90,443.94 95.74,443.93 98.58,443.91 101.42,443.89 104.26,443.87 107.09,443.85 109.93,443.83 112.77,443.80 115.61,443.77 118.45,443.74 121.29,443.71 124.13,443.67 126.96,443.64 129.80,443.60 132.64,443.56 135.48,443.52 138.32,443.47 141.16,443.42 144.00,443.38 146.83,443.33 149.67,443.27 152.51,443.22 155.35,443.16 158.19,443.10 161.03,443.04 163.87,442.98 166.70,442.92 169.54,442.85 172.38,442.78 175.22,442.71 178.06,442.64 180.90,442.57 183.74,442.49 186.57,442.41 189.41,442.33 192.25,442.25 195.09,442.16 197.93,442.08 200.77,441.99 203.61,441.90 206.44,441.80 209.28,441.71 212.12,441.61 214.96,441.51 217.80,441.41 220.64,441.31 223.48,441.21 226.31,441.10 229.15,441.00 231.99,440.89 234.83,440.78 237.67,440.67 240.51,440.56 243.35,440.45 246.18,440.34 249.02,440.23 251.86,440.12 254.70,440.01 257.54,439.90 260.38,439.79 263.22,439.68 266.05,439.57 268.89,439.46 271.73,439.35 274.57,439.25 277.41,439.14 280.25,439.04 283.09,438.94 285.92,438.84 288.76,438.75 291.60,438.65 294.44,438.56 297.28,438.47 300.12,438.38 302.96,438.30 305.79,438.21 308.63,438.13 311.47,438.04 314.31,437.96 317.15,437.88 319.99,437.80 322.83,437.72 325.66,437.64 328.50,437.56 331.34,437.48 334.18,437.40 337.02,437.32 339.86,437.24 342.70,437.16 345.53,437.08 348.37,436.99 351.21,436.91 354.05,436.83 356.89,436.74 359.73,436.65 362.57,436.56 365.40,436.47 368.24,436.38 371.08,436.29 373.92,436.19 376.76,436.09 379.60,435.99 382.44,435.89 385.27,435.78 388.11,435.68 390.95,435.57 393.79,435.46 396.63,435.35 399.47,435.23 402.31,435.12 405.14,435.00 407.98,434.88 410.82,434.76 413.66,434.63 416.50,434.51 419.34,434.38 422.18,434.25 425.01,434.12 427.85,433.98 430.69,433.85 433.53,433.71 436.37,433.57 439.21,433.43 442.05,433.28 444.88,433.14 447.72,432.99 450.56,432.84 453.40,432.70 456.24,432.55 459.08,432.40 461.92,432.25 464.75,432.10 467.59,431.95 470.43,431.80 473.27,431.65 476.11,431.50 478.95,431.35 481.79,431.20 484.62,431.05 487.46,430.90 490.30,430.76 493.14,430.61 495.98,430.47 498.82,430.33 501.66,430.19 504.49,430.05 507.33,429.91 510.17,429.76 513.01,429.62 515.85,429.47 518.69,429.32 521.53,429.16 524.36,429.00 527.20,428.84 530.04,428.67 532.88,428.50 535.72,428.32 538.56,428.14 541.40,427.96 544.23,427.77 547.07,427.59 549.91,427.40 552.75,427.20 555.59,427.01 558.43,426.81 561.27,426.61 564.10,426.41 566.94,426.20 569.78,426.00 572.62,425.78 575.46,425.57 578.30,425.35 581.14,425.13 583.97,424.91 586.81,424.69 589.65,424.46 592.49,424.23 595.33,423.99 598.17,423.76 601.01,423.52 603.84,423.28 606.68,423.03 609.52,422.79 612.36,422.54 615.20,422.28 618.04,422.03 620.88,421.77 623.71,421.51 626.55,421.24 629.39,420.98 632.23,420.71 635.07,420.43 637.91,420.16 640.75,419.88 643.58,419.60 646.42,419.31 649.26,419.03 652.10,418.74 654.94,418.44 657.78,418.15 660.62,417.85 663.45,417.55 666.29,417.24 669.13,416.93 671.97,416.62 674.81,416.31 677.65,415.99 680.49,415.68 683.32,415.36 686.16,415.04 689.00,414.72 691.84,414.39 694.68,414.07 697.52,413.74 700.36,413.42 703.19,413.09 706.03,412.77 708.87,412.44 711.71,412.11 714.55,411.79 717.39,411.46 720.23,411.14 723.06,410.82 725.90,410.50 728.74,410.18 731.58,409.86 734.42,409.55 737.26,409.23 740.10,408.92 742.93,408.61 745.77,408.31 748.61,408.00 751.45,407.70 754.29,407.40 757.13,407.10 759.97,406.80 762.80,406.50 765.64,406.20 768.48,405.90 771.32,405.60 774.16,405.30 777.00,405.00 779.84,404.70 782.67,404.40 785.51,404.10 788.35,403.80 791.19,403.50 794.03,403.20 796.87,402.89 799.71,402.58 802.54,402.27 805.38,401.96 808.22,401.64 811.06,401.32 813.90,401.00 816.74,400.67 819.58,400.35 822.41,400.01 825.25,399.68 828.09,399.34 830.93,399.00 833.77,398.66 836.61,398.31 839.45,397.96 842.28,397.61 845.12,397.25 847.96,396.89 850.80,396.53 853.64,396.16 856.48,395.80 859.32,395.42 862.15,395.05 864.99,394.67 867.83,394.29 870.67,393.90 873.51,393.51 876.35,393.12 879.19,392.72 882.02,392.32 884.86,391.91 887.70,391.51 890.54,391.10 893.38,390.70 896.22,390.29 899.06,389.88 901.89,389.47 904.73,389.07 907.57,388.66 910.41,388.26 913.25,387.85 916.09,387.45 918.93,387.05 921.76,386.65 924.60,386.25 927.44,385.85 930.28,385.45 933.12,385.05 935.96,384.65 938.80,384.25 941.63,383.85 944.47,383.45 947.31,383.05 950.15,382.65 952.99,382.25 955.83,381.84 958.67,381.44 961.50,381.03 964.34,380.62 967.18,380.21 970.02,379.80 972.86,379.39 975.70,378.98 978.54,378.57 981.37,378.16 984.21,377.75 987.05,377.34 989.89,376.94 992.73,376.53 995.57,376.11 998.41,375.69 1001.24,375.25 1004.08,374.81 1006.92,374.36 1009.76,373.91 1012.60,373.45 1015.44,373.00 1018.28,372.55 1021.11,372.09 1023.95,371.63 1026.79,371.18 1029.63,370.72 1032.47,370.27 1035.31,369.81 1038.15,369.35 1040.98,368.89 1043.82,368.38 1046.66,367.82 1049.50,367.22 1052.34,366.61 1055.18,366.00 1058.02,365.39 1060.85,364.77 1063.69,364.16 1066.53,363.54 1069.37,362.92 1072.21,362.31 1075.05,361.69 1077.89,361.05 1080.72,360.41 1083.56,359.77 1086.40,359.12 1089.24,358.48 1092.08,357.83 1094.92,357.18 1097.76,356.53 1100.59,355.88 1103.43,355.22 1104.00,355.11"/><polyline fill="none" stroke="#7c3aed" stroke-width="1.8" points="56.00,103.26 58.84,103.26 61.68,103.26 64.52,103.26 67.35,103.26 70.19,103.26 73.03,103.26 75.87,103.25 78.71,103.25 81.55,103.25 84.39,103.25 87.22,103.24 90.06,103.24 92.90,103.23 95.74,103.23 98.58,103.22 101.42,103.21 104.26,103.21 107.09,103.20 109.93,103.19 112.77,103.18 115.61,103.17 118.45,103.15 121.29,103.14 124.13,103.13 126.96,103.11 129.80,103.10 132.64,103.08 135.48,103.06 138.32,103.05 141.16,103.03 144.00,103.01 146.83,102.99 149.67,102.97 152.51,102.95 155.35,102.92 158.19,102.90 161.03,102.88 163.87,102.85 166.70,102.82 169.54,102.80 172.38,102.77 175.22,102.74 178.06,102.71 180.90,102.68 183.74,102.65 186.57,102.62 189.41,102.59 192.25,102.56 195.09,102.52 197.93,102.49 200.77,102.45 203.61,102.42 206.44,102.38 209.28,102.34 212.12,102.30 214.96,102.26 217.80,102.22 220.64,102.18 223.48,102.14 226.31,102.10 229.15,102.06 231.99,102.01 234.83,101.97 237.67,101.93 240.51,101.88 243.35,101.84 246.18,101.79 249.02,101.75 251.86,101.70 254.70,101.66 257.54,101.62 260.38,101.57 263.22,101.53 266.05,101.48 268.89,101.44 271.73,101.40 274.57,101.36 277.41,101.32 280.25,101.27 283.09,101.23 285.92,101.20 288.76,101.16 291.60,101.12 294.44,101.08 297.28,101.05 300.12,101.01 302.96,100.98 305.79,100.94 308.63,100.91 311.47,100.88 314.31,100.84 317.15,100.81 319.99,100.78 322.83,100.75 325.66,100.71 328.50,100.68 331.34,100.65 334.18,100.62 337.02,100.58 339.86,100.55 342.70,100.52 345.53,100.48 348.37,100.45 351.21,100.41 354.05,100.37 356.89,100.33 359.73,100.29 362.57,100.24 365.40,100.20 368.24,100.15 371.08,100.10 373.92,100.04 376.76,99.99 379.60,99.93 382.44,99.87 385.27,99.81 388.11,99.75 390.95,99.68 393.79,99.62 396.63,99.55 399.47,99.48 402.31,99.41 405.14,99.34 407.98,99.27 410.82,99.19 413.66,99.12 416.50,99.04 419.34,98.97 422.18,98.89 425.01,98.81 427.85,98.73 430.69,98.65 433.53,98.56 436.37,98.48 439.21,98.39 442.05,98.31 444.88,98.22 447.72,98.13 450.56,98.05 453.40,97.96 456.24,97.87 459.08,97.78 461.92,97.69 464.75,97.60 467.59,97.51 470.43,97.42 473.27,97.33 476.11,97.24 478.95,97.15 481.79,97.06 484.62,96.97 487.46,96.88 490.30,96.79 493.14,96.71 495.98,96.62 498.82,96.54 501.66,96.45 504.49,96.37 507.33,96.28 510.17,96.20 513.01,96.11 515.85,96.02 518.69,95.93 521.53,95.83 524.36,95.73 527.20,95.63 530.04,95.53 532.88,95.42 535.72,95.31 538.56,95.20 541.40,95.08 544.23,94.97 547.07,94.85 549.91,94.73 552.75,94.61 555.59,94.49 558.43,94.37 561.27,94.24 564.10,94.12 566.94,93.99 569.78,93.86 572.62,93.72 575.46,93.59 578.30,93.46 581.14,93.32 583.97,93.18 586.81,93.04 589.65,92.90 592.49,92.75 595.33,92.61 598.17,92.46 601.01,92.31 603.84,92.16 606.68,92.01 609.52,91.85 612.36,91.69 615.20,91.54 618.04,91.38 620.88,91.22 623.71,91.05 626.55,90.89 629.39,90.72 632.23,90.55 635.07,90.38 637.91,90.21 640.75,90.03 643.58,89.86 646.42,89.68 649.26,89.50 652.10,89.32 654.94,89.14 657.78,88.95 660.62,88.76 663.45,88.58 666.29,88.38 669.13,88.19 671.97,88.00 674.81,87.80 677.65,87.61 680.49,87.41 683.32,87.21 686.16,87.01 689.00,86.81 691.84,86.60 694.68,86.40 697.52,86.20 700.36,86.00 703.19,85.79 706.03,85.59 708.87,85.38 711.71,85.18 714.55,84.98 717.39,84.77 720.23,84.57 723.06,84.37 725.90,84.17 728.74,83.97 731.58,83.77 734.42,83.58 737.26,83.38 740.10,83.19 742.93,82.99 745.77,82.80 748.61,82.61 751.45,82.42 754.29,82.23 757.13,82.04 759.97,81.85 762.80,81.66 765.64,81.47 768.48,81.26 771.32,81.05 774.16,80.82 777.00,80.59 779.84,80.34 782.67,80.09 785.51,79.83 788.35,79.57 791.19,79.30 794.03,79.04 796.87,78.77 799.71,78.50 802.54,78.23 805.38,77.95 808.22,77.68 811.06,77.40 813.90,77.11 816.74,76.83 819.58,76.54 822.41,76.25 825.25,75.96 828.09,75.66 830.93,75.37 833.77,75.07 836.61,74.76 839.45,74.46 842.28,74.15 845.12,73.83 847.96,73.52 850.80,73.20 853.64,72.88 856.48,72.56 859.32,72.24 862.15,71.91 864.99,71.58 867.83,71.26 870.67,70.94 873.51,70.63 876.35,70.34 879.19,70.06 882.02,69.79 884.86,69.52 887.70,69.25 890.54,68.98 893.38,68.71 896.22,68.44 899.06,68.17 901.89,67.90 904.73,67.62 907.57,67.35 910.41,67.08 913.25,66.81 916.09,66.55 918.93,66.28 921.76,66.01 924.60,65.74 927.44,65.48 930.28,65.21 933.12,64.94 935.96,64.68 938.80,64.41 941.63,64.15 944.47,63.88 947.31,63.61 950.15,63.35 952.99,63.08 955.83,62.81 958.67,62.54 961.50,62.26 964.34,61.99 967.18,61.72 970.02,61.44 972.86,61.17 975.70,60.90 978.54,60.62 981.37,60.35 984.21,60.08 987.05,59.81 989.89,59.54 992.73,59.27 995.57,59.01 998.41,58.78 1001.24,58.58 1004.08,58.40 1006.92,58.22 1009.76,58.04 1012.60,57.85 1015.44,57.67 1018.28,57.49 1021.11,57.31 1023.95,57.13 1026.79,56.94 1029.63,56.76 1032.47,56.58 1035.31,56.40 1038.15,56.22 1040.98,56.06 1043.82,56.00 1046.66,56.12 1049.50,56.34 1052.34,56.58 1055.18,56.83 1058.02,57.07 1060.85,57.32 1063.69,57.56 1066.53,57.81 1069.37,58.06 1072.21,58.31 1075.05,58.56 1077.89,58.90 1080.72,59.45 1083.56,60.08 1086.40,60.73 1089.24,61.37 1092.08,62.02 1094.92,62.67 1097.76,63.32 1100.59,63.97 1103.43,64.63 1104.00,64.74"/><polyline fill="none" stroke="#d97706" stroke-width="1.8" points="56.00,281.04 58.84,281.04 61.68,281.04 64.52,281.04 67.35,281.03 70.19,281.03 73.03,281.03 75.87,281.03 78.71,281.02 81.55,281.02 84.39,281.01 87.22,281.00 90.06,280.99 92.90,280.98 95.74,280.96 98.58,280.95 101.42,280.93 104.26,280.91 107.09,280.89 109.93,280.86 112.77,280.84 115.61,280.81 118.45,280.78 121.29,280.74 124.13,280.71 126.96,280.67 129.80,280.63 132.64,280.59 135.48,280.55 138.32,280.51 141.16,280.46 144.00,280.41 146.83,280.36 149.67,280.31 152.51,280.26 155.35,280.20 158.19,280.14 161.03,280.08 163.87,280.02 166.70,279.95 169.54,279.89 172.38,279.82 175.22,279.75 178.06,279.68 180.90,279.60 183.74,279.53 186.57,279.45 189.41,279.37 192.25,279.28 195.09,279.20 197.93,279.11 200.77,279.02 203.61,278.93 206.44,278.84 209.28,278.75 212.12,278.65 214.96,278.55 217.80,278.45 220.64,278.35 223.48,278.24 226.31,278.14 229.15,278.03 231.99,277.92 234.83,277.82 237.67,277.71 240.51,277.60 243.35,277.49 246.18,277.37 249.02,277.26 251.86,277.15 254.70,277.04 257.54,276.93 260.38,276.82 263.22,276.71 266.05,276.60 268.89,276.50 271.73,276.39 274.57,276.28 277.41,276.18 280.25,276.08 283.09,275.98 285.92,275.88 288.76,275.78 291.60,275.69 294.44,275.60 297.28,275.51 300.12,275.42 302.96,275.33 305.79,275.25 308.63,275.16 311.47,275.08 314.31,275.00 317.15,274.92 319.99,274.84 322.83,274.76 325.66,274.68 328.50,274.60 331.34,274.52 334.18,274.44 337.02,274.36 339.86,274.28 342.70,274.20 345.53,274.11 348.37,274.03 351.21,273.95 354.05,273.86 356.89,273.78 359.73,273.69 362.57,273.60 365.40,273.51 368.24,273.42 371.08,273.32 373.92,273.23 376.76,273.13 379.60,273.03 382.44,272.92 385.27,272.82 388.11,272.71 390.95,272.61 393.79,272.50 396.63,272.38 399.47,272.27 402.31,272.15 405.14,272.04 407.98,271.92 410.82,271.79 413.66,271.67 416.50,271.54 419.34,271.42 422.18,271.29 425.01,271.15 427.85,271.02 430.69,270.88 433.53,270.74 436.37,270.60 439.21,270.46 442.05,270.32 444.88,270.17 447.72,270.03 450.56,269.88 453.40,269.73 456.24,269.58 459.08,269.43 461.92,269.28 464.75,269.13 467.59,268.98 470.43,268.83 473.27,268.68 476.11,268.53 478.95,268.38 481.79,268.23 484.62,268.09 487.46,267.94 490.30,267.80 493.14,267.65 495.98,267.51 498.82,267.37 501.66,267.23 504.49,267.09 507.33,266.95 510.17,266.81 513.01,266.68 515.85,266.55 518.69,266.42 521.53,266.29 524.36,266.17 527.20,266.05 530.04,265.93 532.88,265.81 535.72,265.69 538.56,265.57 541.40,265.46 544.23,265.34 547.07,265.22 549.91,265.10 552.75,264.98 555.59,264.86 558.43,264.74 561.27,264.61 564.10,264.49 566.94,264.36 569.78,264.23 572.62,264.10 575.46,263.96 578.30,263.83 581.14,263.69 583.97,263.55 586.81,263.41 589.65,263.27 592.49,263.12 595.33,262.98 598.17,262.83 601.01,262.68 603.84,262.53 606.68,262.38 609.52,262.22 612.36,262.07 615.20,261.91 618.04,261.75 620.88,261.59 623.71,261.42 626.55,261.26 629.39,261.09 632.23,260.92 635.07,260.75 637.91,260.58 640.75,260.40 643.58,260.23 646.42,260.05 649.26,259.87 652.10,259.69 654.94,259.51 657.78,259.32 660.62,259.14 663.45,258.95 666.29,258.76 669.13,258.56 671.97,258.37 674.81,258.17 677.65,257.98 680.49,257.78 683.32,257.58 686.16,257.38 689.00,257.18 691.84,256.98 694.68,256.77 697.52,256.57 700.36,256.37 703.19,256.16 706.03,255.96 708.87,255.76 711.71,255.55 714.55,255.35 717.39,255.15 720.23,254.94 723.06,254.74 725.90,254.54 728.74,254.34 731.58,254.14 734.42,253.95 737.26,253.75 740.10,253.56 742.93,253.36 745.77,253.17 748.61,252.98 751.45,252.79 754.29,252.60 757.13,252.42 759.97,252.23 762.80,252.05 765.64,251.86 768.48,251.68 771.32,251.51 774.16,251.34 777.00,251.18 779.84,251.03 782.67,250.87 785.51,250.72 788.35,250.57 791.19,250.42 794.03,250.26 796.87,250.11 799.71,249.96 802.54,249.80 805.38,249.64 808.22,249.49 811.06,249.33 813.90,249.17 816.74,249.00 819.58,248.84 822.41,248.67 825.25,248.51 828.09,248.34 830.93,248.17 833.77,248.00 836.61,247.82 839.45,247.65 842.28,247.47 845.12,247.29 847.96,247.11 850.80,246.93 853.64,246.75 856.48,246.56 859.32,246.38 862.15,246.19 864.99,246.00 867.83,245.80 870.67,245.59 873.51,245.37 876.35,245.13 879.19,244.87 882.02,244.61 884.86,244.34 887.70,244.07 890.54,243.80 893.38,243.52 896.22,243.25 899.06,242.98 901.89,242.71 904.73,242.44 907.57,242.17 910.41,241.90 913.25,241.63 916.09,241.36 918.93,241.09 921.76,240.83 924.60,240.56 927.44,240.29 930.28,240.04 933.12,239.79 935.96,239.58 938.80,239.41 941.63,239.26 944.47,239.13 947.31,238.99 950.15,238.86 952.99,238.72 955.83,238.59 958.67,238.45 961.50,238.32 964.34,238.18 967.18,238.04 970.02,237.91 972.86,237.77 975.70,237.63 978.54,237.50 981.37,237.36 984.21,237.22 987.05,237.09 989.89,236.95 992.73,236.81 995.57,236.67 998.41,236.52 1001.24,236.35 1004.08,236.17 1006.92,235.99 1009.76,235.81 1012.60,235.63 1015.44,235.45 1018.28,235.27 1021.11,235.09 1023.95,234.90 1026.79,234.72 1029.63,234.54 1032.47,234.36 1035.31,234.17 1038.15,234.00 1040.98,233.84 1043.82,233.78 1046.66,233.89 1049.50,234.12 1052.34,234.36 1055.18,234.61 1058.02,234.85 1060.85,235.10 1063.69,235.34 1066.53,235.59 1069.37,235.84 1072.21,236.08 1075.05,236.34 1077.89,236.72 1080.72,237.38 1083.56,238.18 1086.40,238.99 1089.24,239.79 1092.08,240.60 1094.92,241.41 1097.76,242.23 1100.59,243.04 1103.43,243.86 1104.00,244.00"/><polyline fill="none" stroke="#dc2626" stroke-width="1.8" points="56.00,147.70 58.84,147.70 61.68,147.70 64.52,147.70 67.35,147.70 70.19,147.70 73.03,147.70 75.87,147.71 78.71,147.71 81.55,147.71 84.39,147.71 87.22,147.72 90.06,147.72 92.90,147.73 95.74,147.73 98.58,147.74 101.42,147.75 104.26,147.75 107.09,147.76 109.93,147.77 112.77,147.78 115.61,147.79 118.45,147.81 121.29,147.82 124.13,147.83 126.96,147.85 129.80,147.86 132.64,147.88 135.48,147.90 138.32,147.91 141.16,147.93 144.00,147.95 146.83,147.97 149.67,147.99 152.51,148.01 155.35,148.04 158.19,148.06 161.03,148.08 163.87,148.11 166.70,148.14 169.54,148.16 172.38,148.19 175.22,148.22 178.06,148.25 180.90,148.28 183.74,148.31 186.57,148.34 189.41,148.37 192.25,148.40 195.09,148.44 197.93,148.47 200.77,148.51 203.61,148.54 206.44,148.58 209.28,148.62 212.12,148.66 214.96,148.70 217.80,148.74 220.64,148.78 223.48,148.82 226.31,148.86 229.15,148.90 231.99,148.95 234.83,148.99 237.67,149.03 240.51,149.08 243.35,149.12 246.18,149.17 249.02,149.21 251.86,149.26 254.70,149.30 257.54,149.34 260.38,149.39 263.22,149.43 266.05,149.48 268.89,149.52 271.73,149.56 274.57,149.60 277.41,149.64 280.25,149.69 283.09,149.73 285.92,149.76 288.76,149.80 291.60,149.84 294.44,149.88 297.28,149.91 300.12,149.95 302.96,149.98 305.79,150.02 308.63,150.05 311.47,150.09 314.31,150.12 317.15,150.15 319.99,150.18 322.83,150.21 325.66,150.25 328.50,150.28 331.34,150.31 334.18,150.34 337.02,150.37 339.86,150.41 342.70,150.44 345.53,150.47 348.37,150.50 351.21,150.54 354.05,150.57 356.89,150.61 359.73,150.64 362.57,150.68 365.40,150.71 368.24,150.75 371.08,150.79 373.92,150.83 376.76,150.87 379.60,150.91 382.44,150.95 385.27,150.99 388.11,151.03 390.95,151.07 393.79,151.12 396.63,151.16 399.47,151.21 402.31,151.26 405.14,151.30 407.98,151.35 410.82,151.40 413.66,151.45 416.50,151.50 419.34,151.55 422.18,151.60 425.01,151.66 427.85,151.71 430.69,151.76 433.53,151.82 436.37,151.88 439.21,151.93 442.05,151.99 444.88,152.05 447.72,152.11 450.56,152.17 453.40,152.22 456.24,152.28 459.08,152.34 461.92,152.40 464.75,152.46 467.59,152.52 470.43,152.58 473.27,152.64 476.11,152.70 478.95,152.76 481.79,152.82 484.62,152.88 487.46,152.94 490.30,153.00 493.14,153.06 495.98,153.11 498.82,153.17 501.66,153.23 504.49,153.28 507.33,153.34 510.17,153.39 513.01,153.44 515.85,153.50 518.69,153.55 521.53,153.60 524.36,153.65 527.20,153.70 530.04,153.75 532.88,153.79 535.72,153.84 538.56,153.89 541.40,153.93 544.23,153.98 547.07,154.03 549.91,154.08 552.75,154.12 555.59,154.17 558.43,154.22 561.27,154.27 564.10,154.32 566.94,154.37 569.78,154.43 572.62,154.48 575.46,154.53 578.30,154.59 581.14,154.64 583.97,154.70 586.81,154.75 589.65,154.81 592.49,154.87 595.33,154.93 598.17,154.98 601.01,155.04 603.84,155.11 606.68,155.17 609.52,155.23 612.36,155.29 615.20,155.35 618.04,155.42 620.88,155.48 623.71,155.55 626.55,155.61 629.39,155.68 632.23,155.75 635.07,155.82 637.91,155.89 640.75,155.95 643.58,156.03 646.42,156.10 649.26,156.17 652.10,156.24 654.94,156.31 657.78,156.39 660.62,156.46 663.45,156.54 666.29,156.61 669.13,156.69 671.97,156.77 674.81,156.85 677.65,156.93 680.49,157.01 683.32,157.09 686.16,157.17 689.00,157.25 691.84,157.33 694.68,157.41 697.52,157.49 700.36,157.57 703.19,157.65 706.03,157.73 708.87,157.81 711.71,157.90 714.55,157.98 717.39,158.06 720.23,158.14 723.06,158.22 725.90,158.30 728.74,158.38 731.58,158.46 734.42,158.54 737.26,158.62 740.10,158.69 742.93,158.77 745.77,158.85 748.61,158.92 751.45,159.00 754.29,159.08 757.13,159.15 759.97,159.23 762.80,159.30 765.64,159.38 768.48,159.45 771.32,159.52 774.16,159.60 777.00,159.67 779.84,159.75 782.67,159.82 785.51,159.90 788.35,159.97 791.19,160.05 794.03,160.13 796.87,160.20 799.71,160.28 802.54,160.36 805.38,160.44 808.22,160.51 811.06,160.59 813.90,160.67 816.74,160.76 819.58,160.84 822.41,160.92 825.25,161.00 828.09,161.09 830.93,161.17 833.77,161.26 836.61,161.35 839.45,161.43 842.28,161.52 845.12,161.61 847.96,161.70 850.80,161.79 853.64,161.88 856.48,161.98 859.32,162.07 862.15,162.16 864.99,162.26 867.83,162.36 870.67,162.46 873.51,162.57 876.35,162.69 879.19,162.82 882.02,162.95 884.86,163.09 887.70,163.22 890.54,163.36 893.38,163.50 896.22,163.63 899.06,163.77 901.89,163.90 904.73,164.04 907.57,164.17 910.41,164.31 913.25,164.44 916.09,164.58 918.93,164.71 921.76,164.84 924.60,164.98 927.44,165.11 930.28,165.24 933.12,165.38 935.96,165.51 938.80,165.64 941.63,165.78 944.47,165.91 947.31,166.04 950.15,166.18 952.99,166.31 955.83,166.45 958.67,166.58 961.50,166.72 964.34,166.85 967.18,166.99 970.02,167.13 972.86,167.26 975.70,167.40 978.54,167.54 981.37,167.67 984.21,167.81 987.05,167.95 989.89,168.08 992.73,168.22 995.57,168.36 998.41,168.52 1001.24,168.69 1004.08,168.86 1006.92,169.04 1009.76,169.22 1012.60,169.40 1015.44,169.58 1018.28,169.77 1021.11,169.95 1023.95,170.13 1026.79,170.31 1029.63,170.50 1032.47,170.68 1035.31,170.86 1038.15,171.04 1040.98,171.23 1043.82,171.43 1046.66,171.66 1049.50,171.90 1052.34,172.14 1055.18,172.38 1058.02,172.63 1060.85,172.87 1063.69,173.12 1066.53,173.37 1069.37,173.61 1072.21,173.86 1075.05,174.11 1077.89,174.38 1080.72,174.68 1083.56,175.00 1086.40,175.33 1089.24,175.65 1092.08,175.97 1094.92,176.30 1097.76,176.62 1100.59,176.95 1103.43,177.28 1104.00,177.33"/><polyline fill="none" stroke="#0ea5a8" stroke-width="1.8" points="56.00,281.04 58.84,281.04 61.68,281.04 64.52,281.03 67.35,281.03 70.19,281.03 73.03,281.02 75.87,281.02 78.71,281.01 81.55,281.00 84.39,280.98 87.22,280.97 90.06,280.94 92.90,280.92 95.74,280.89 98.58,280.86 101.42,280.82 104.26,280.78 107.09,280.74 109.93,280.69 112.77,280.63 115.61,280.58 118.45,280.52 121.29,280.45 124.13,280.38 126.96,280.31 129.80,280.23 132.64,280.15 135.48,280.07 138.32,279.98 141.16,279.89 144.00,279.79 146.83,279.69 149.67,279.58 152.51,279.48 155.35,279.36 158.19,279.25 161.03,279.13 163.87,279.00 166.70,278.87 169.54,278.74 172.38,278.60 175.22,278.46 178.06,278.32 180.90,278.17 183.74,278.01 186.57,277.86 189.41,277.70 192.25,277.53 195.09,277.36 197.93,277.19 200.77,277.01 203.61,276.83 206.44,276.65 209.28,276.46 212.12,276.26 214.96,276.07 217.80,275.86 220.64,275.66 223.48,275.45 226.31,275.24 229.15,275.03 231.99,274.81 234.83,274.60 237.67,274.38 240.51,274.16 243.35,273.94 246.18,273.71 249.02,273.49 251.86,273.27 254.70,273.05 257.54,272.83 260.38,272.61 263.22,272.39 266.05,272.17 268.89,271.96 271.73,271.74 274.57,271.53 277.41,271.33 280.25,271.12 283.09,270.92 285.92,270.73 288.76,270.53 291.60,270.34 294.44,270.16 297.28,269.98 300.12,269.80 302.96,269.63 305.79,269.46 308.63,269.29 311.47,269.12 314.31,268.96 317.15,268.80 319.99,268.64 322.83,268.47 325.66,268.32 328.50,268.16 331.34,268.00 334.18,267.84 337.02,267.68 339.86,267.52 342.70,267.35 345.53,267.19 348.37,267.03 351.21,266.86 354.05,266.69 356.89,266.52 359.73,266.34 362.57,266.16 365.40,265.98 368.24,265.80 371.08,265.61 373.92,265.41 376.76,265.22 379.60,265.02 382.44,264.81 385.27,264.61 388.11,264.39 390.95,264.18 393.79,263.96 396.63,263.73 399.47,263.51 402.31,263.27 405.14,263.04 407.98,262.80 410.82,262.55 413.66,262.30 416.50,262.05 419.34,261.80 422.18,261.53 425.01,261.27 427.85,261.00 430.69,260.73 433.53,260.45 436.37,260.17 439.21,259.89 442.05,259.60 444.88,259.31 447.72,259.02 450.56,258.72 453.40,258.43 456.24,258.13 459.08,257.83 461.92,257.53 464.75,257.23 467.59,256.93 470.43,256.63 473.27,256.33 476.11,256.03 478.95,255.73 481.79,255.43 484.62,255.14 487.46,254.84 490.30,254.55 493.14,254.27 495.98,253.98 498.82,253.70 501.66,253.42 504.49,253.14 507.33,252.86 510.17,252.59 513.01,252.32 515.85,252.06 518.69,251.80 521.53,251.55 524.36,251.30 527.20,251.06 530.04,250.82 532.88,250.58 535.72,250.35 538.56,250.11 541.40,249.88 544.23,249.65 547.07,249.41 549.91,249.17 552.75,248.93 555.59,248.69 558.43,248.44 561.27,248.19 564.10,247.94 566.94,247.68 569.78,247.42 572.62,247.15 575.46,246.89 578.30,246.62 581.14,246.34 583.97,246.06 586.81,245.78 589.65,245.50 592.49,245.21 595.33,244.92 598.17,244.62 601.01,244.32 603.84,244.02 606.68,243.72 609.52,243.41 612.36,243.10 615.20,242.78 618.04,242.46 620.88,242.14 623.71,241.81 626.55,241.48 629.39,241.15 632.23,240.81 635.07,240.47 637.91,240.12 640.75,239.77 643.58,239.42 646.42,239.07 649.26,238.71 652.10,238.34 654.94,237.98 657.78,237.61 660.62,237.23 663.45,236.86 666.29,236.48 669.13,236.09 671.97,235.70 674.81,235.31 677.65,234.92 680.49,234.52 683.32,234.12 686.16,233.72 689.00,233.32 691.84,232.92 694.68,232.51 697.52,232.10 700.36,231.70 703.19,231.29 706.03,230.88 708.87,230.47 711.71,230.07 714.55,229.66 717.39,229.26 720.23,228.85 723.06,228.45 725.90,228.05 728.74,227.65 731.58,227.25 734.42,226.86 737.26,226.47 740.10,226.08 742.93,225.69 745.77,225.31 748.61,224.93 751.45,224.55 754.29,224.17 757.13,223.80 759.97,223.42 762.80,223.05 765.64,222.69 768.48,222.33 771.32,221.99 774.16,221.65 777.00,221.33 779.84,221.01 782.67,220.71 785.51,220.40 788.35,220.10 791.19,219.80 794.03,219.49 796.87,219.19 799.71,218.88 802.54,218.57 805.38,218.25 808.22,217.94 811.06,217.62 813.90,217.30 816.74,216.97 819.58,216.64 822.41,216.31 825.25,215.98 828.09,215.64 830.93,215.30 833.77,214.95 836.61,214.61 839.45,214.26 842.28,213.90 845.12,213.55 847.96,213.19 850.80,212.83 853.64,212.46 856.48,212.09 859.32,211.72 862.15,211.34 864.99,210.96 867.83,210.58 870.67,210.18 873.51,209.76 876.35,209.32 879.19,208.86 882.02,208.39 884.86,207.92 887.70,207.45 890.54,206.98 893.38,206.50 896.22,206.03 899.06,205.55 901.89,205.08 904.73,204.60 907.57,204.13 910.41,203.66 913.25,203.19 916.09,202.72 918.93,202.25 921.76,201.78 924.60,201.31 927.44,200.85 930.28,200.38 933.12,199.91 935.96,199.45 938.80,198.98 941.63,198.52 944.47,198.05 947.31,197.59 950.15,197.12 952.99,196.65 955.83,196.17 958.67,195.70 961.50,195.22 964.34,194.75 967.18,194.27 970.02,193.79 972.86,193.31 975.70,192.83 978.54,192.35 981.37,191.88 984.21,191.40 987.05,190.92 989.89,190.45 992.73,189.97 995.57,189.49 998.41,188.98 1001.24,188.46 1004.08,187.93 1006.92,187.39 1009.76,186.85 1012.60,186.31 1015.44,185.76 1018.28,185.22 1021.11,184.67 1023.95,184.12 1026.79,183.58 1029.63,183.03 1032.47,182.48 1035.31,181.93 1038.15,181.38 1040.98,180.82 1043.82,180.22 1046.66,179.54 1049.50,178.82 1052.34,178.09 1055.18,177.36 1058.02,176.63 1060.85,175.89 1063.69,175.15 1066.53,174.41 1069.37,173.67 1072.21,172.93 1075.05,172.18 1077.89,171.38 1080.72,170.46 1083.56,169.50 1086.40,168.53 1089.24,167.57 1092.08,166.59 1094.92,165.62 1097.76,164.65 1100.59,163.67 1103.43,162.69 1104.00,162.52"/>
  <rect x="780" y="20" width="10" height="10" fill="#0b7ad1"/><text x="796" y="29" font-family="Segoe UI, Arial" font-size="12" fill="#334155">J1</text><rect x="900" y="20" width="10" height="10" fill="#16a34a"/><text x="916" y="29" font-family="Segoe UI, Arial" font-size="12" fill="#334155">J2</text><rect x="1020" y="20" width="10" height="10" fill="#7c3aed"/><text x="1036" y="29" font-family="Segoe UI, Arial" font-size="12" fill="#334155">J3</text><rect x="780" y="40" width="10" height="10" fill="#d97706"/><text x="796" y="49" font-family="Segoe UI, Arial" font-size="12" fill="#334155">J4</text><rect x="900" y="40" width="10" height="10" fill="#dc2626"/><text x="916" y="49" font-family="Segoe UI, Arial" font-size="12" fill="#334155">J5</text><rect x="1020" y="40" width="10" height="10" fill="#0ea5a8"/><text x="1036" y="49" font-family="Segoe UI, Arial" font-size="12" fill="#334155">J6</text>
  <text x="580" y="488" font-family="Segoe UI, Arial" font-size="12" fill="#475569">Time [s] (0.00 .. 14.77)</text>
  <text x="10" y="250" transform="rotate(-90 10 250)" font-family="Segoe UI, Arial" font-size="12" fill="#475569">Joint Position [rad] (-1.10 .. 1.52)</text>
</svg>