<svg xmlns="http://www.w3.org/2000/svg" width="1160" height="460" viewBox="0 0 1160 460">
  <rect width="100%" height="100%" fill="#f8fbff"/>
  <text x="48" y="26" font-family="Segoe UI, Arial" font-size="18" fill="#1f2937" font-weight="700">Path Profile s(t) (Demo Run)</text>
  <line x1="48" y1="412" x2="1112" y2="412" stroke="#94a3b8" stroke-width="1"/>
  <line x1="48" y1="48" x2="48" y2="412" stroke="#94a3b8" stroke-width="1"/>
  <polyline fill="none" stroke="#16a34a" stroke-width="2" points="48.00,412.00 52.32,412.00 56.65,412.00 60.97,411.99 65.29,411.97 69.61,411.93 73.94,411.89 78.26,411.82 82.58,411.73 86.91,411.62 91.23,411.48 95.55,411.31 99.87,411.12 104.20,410.90 108.52,410.66 112.84,410.39 117.17,410.09 121.49,409.77 125.81,409.42 130.13,409.04 134.46,408.64 138.78,408.21 143.10,407.76 147.43,407.28 151.75,406.77 156.07,406.24 160.39,405.68 164.72,405.09 169.04,404.48 173.36,403.84 177.69,403.18 182.01,402.49 186.33,401.77 190.65,401.03 194.98,400.26 199.30,399.47 203.62,398.65 207.95,397.80 212.27,396.92 216.59,396.03 220.91,395.12 225.24,394.18 229.56,393.24 233.88,392.29 238.21,391.33 242.53,390.36 246.85,389.40 251.17,388.44 255.50,387.48 259.82,386.54 264.14,385.60 268.47,384.68 272.79,383.78 277.11,382.90 281.43,382.05 285.76,381.22 290.08,380.42 294.40,379.64 298.73,378.89 303.05,378.15 307.37,377.43 311.69,376.72 316.02,376.03 320.34,375.34 324.66,374.65 328.99,373.96 333.31,373.27 337.63,372.58 341.95,371.87 346.28,371.16 350.60,370.43 354.92,369.67 359.25,368.90 363.57,368.11 367.89,367.28 372.21,366.43 376.54,365.56 380.86,364.65 385.18,363.73 389.51,362.77 393.83,361.79 398.15,360.78 402.47,359.75 406.80,358.69 411.12,357.61 415.44,356.50 419.77,355.36 424.09,354.19 428.41,353.00 432.73,351.79 437.06,350.55 441.38,349.29 445.70,348.02 450.03,346.73 454.35,345.44 458.67,344.13 462.99,342.82 467.32,341.52 471.64,340.21 475.96,338.91 480.29,337.62 484.61,336.34 488.93,335.08 493.25,333.84 497.58,332.61 501.90,331.40 506.22,330.19 510.55,329.00 514.87,327.81 519.19,326.63 523.51,325.44 527.84,324.25 532.16,323.05 536.48,321.84 540.81,320.61 545.13,319.37 549.45,318.11 553.77,316.83 558.10,315.52 562.42,314.18 566.74,312.82 571.07,311.43 575.39,310.02 579.71,308.58 584.03,307.11 588.36,305.62 592.68,304.10 597.00,302.56 601.33,300.99 605.65,299.39 609.97,297.76 614.29,296.11 618.62,294.44 622.94,292.74 627.26,291.01 631.59,289.25 635.91,287.47 640.23,285.66 644.55,283.83 648.88,281.97 653.20,280.08 657.52,278.17 661.85,276.23 666.17,274.27 670.49,272.28 674.81,270.26 679.14,268.23 683.46,266.18 687.78,264.11 692.11,262.04 696.43,259.95 700.75,257.87 705.07,255.78 709.40,253.69 713.72,251.60 718.04,249.53 722.37,247.46 726.69,245.41 731.01,243.38 735.33,241.37 739.66,239.38 743.98,237.42 748.30,235.48 752.63,233.56 756.95,231.65 761.27,229.76 765.59,227.88 769.92,226.00 774.24,224.13 778.56,222.25 782.89,220.38 787.21,218.50 791.53,216.61 795.85,214.71 800.18,212.79 804.50,210.85 808.82,208.89 813.15,206.91 817.47,204.90 821.79,202.87 826.11,200.81 830.44,198.72 834.76,196.61 839.08,194.47 843.41,192.30 847.73,190.11 852.05,187.89 856.37,185.65 860.70,183.38 865.02,181.08 869.34,178.76 873.67,176.43 877.99,174.07 882.31,171.71 886.63,169.33 890.96,166.94 895.28,164.56 899.60,162.17 903.93,159.78 908.25,157.40 912.57,155.03 916.89,152.67 921.22,150.33 925.54,148.00 929.86,145.68 934.19,143.36 938.51,141.06 942.83,138.75 947.15,136.44 951.48,134.12 955.80,131.80 960.12,129.46 964.45,127.12 968.77,124.77 973.09,122.42 977.41,120.07 981.74,117.73 986.06,115.39 990.38,113.06 994.71,110.74 999.03,108.43 1003.35,106.12 1007.67,103.81 1012.00,101.50 1016.32,99.18 1020.64,96.86 1024.97,94.53 1029.29,92.20 1033.61,89.87 1037.93,87.55 1042.26,85.23 1046.58,82.92 1050.90,80.61 1055.23,78.30 1059.55,75.99 1063.87,73.68 1068.20,71.37 1072.52,69.05 1076.84,66.73 1081.16,64.42 1085.49,62.11 1089.81,59.81 1094.13,57.50 1098.46,55.19 1102.78,52.88 1107.10,50.57 1111.42,48.27 1112.00,48.00"/>
  <text x="580" y="450" font-family="Segoe UI, Arial" font-size="12" fill="#475569">Time [s] [0.000 .. 14.768]</text>
  <text x="8" y="230" transform="rotate(-90 8 230)" font-family="Segoe UI, Arial" font-size="12" fill="#475569">Path coordinate s [0.000 .. 1.000]</text>
</svg>