<svg xmlns="http://www.w3.org/2000/svg" width="1160" height="500" viewBox="0 0 1160 500">
  <rect width="100%" height="100%" fill="#f8fbff"/>
  <text x="56" y="28" font-family="Segoe UI, Arial" font-size="18" fill="#1f2937" font-weight="700">Uniform Playback Joint Trajectory qUniform(t) (Demo Run)</text>
  <line x1="56" y1="444" x2="1104" y2="444" stroke="#94a3b8" stroke-width="1"/>
  <line x1="56" y1="56" x2="56" y2="444" stroke="#94a3b8" stroke-width="1"/>
  <polyline fill="none" stroke="#0b7ad1" stroke-width="1.8" points="56.00,281.02 58.92,281.02 61.84,281.02 64.76,281.02 67.69,281.01 70.61,281.01 73.53,281.01 76.45,281.00 79.37,280.99 82.29,280.98 85.22,280.97 88.14,280.95 91.06,280.93 93.98,280.90 96.90,280.87 99.82,280.84 102.75,280.80 105.67,280.76 108.59,280.72 111.51,280.67 114.43,280.62 117.35,280.56 120.28,280.50 123.20,280.43 126.12,280.36 129.04,280.29 131.96,280.22 134.88,280.13 137.81,280.05 140.73,279.96 143.65,279.87 146.57,279.77 149.49,279.67 152.41,279.57 155.34,279.46 158.26,279.34 161.18,279.23 164.10,279.11 167.02,278.98 169.94,278.85 172.87,278.72 175.79,278.58 178.71,278.44 181.63,278.30 184.55,278.15 187.47,278.00 190.40,277.84 193.32,277.68 196.24,277.51 199.16,277.34 202.08,277.17 205.00,276.99 207.93,276.81 210.85,276.63 213.77,276.44 216.69,276.25 219.61,276.05 222.53,275.85 225.46,275.64 228.38,275.44 231.30,275.23 234.22,275.01 237.14,274.80 240.06,274.58 242.99,274.37 245.91,274.15 248.83,273.93 251.75,273.71 254.67,273.49 257.59,273.27 260.52,273.06 263.44,272.84 266.36,272.62 269.28,272.41 272.20,272.20 275.12,271.98 278.05,271.78 280.97,271.57 283.89,271.37 286.81,271.17 289.73,270.98 292.65,270.79 295.58,270.60 298.50,270.42 301.42,270.24 304.34,270.06 307.26,269.89 310.18,269.72 313.11,269.56 316.03,269.39 318.95,269.23 321.87,269.07 324.79,268.91 327.71,268.75 330.64,268.59 333.56,268.44 336.48,268.28 339.40,268.12 342.32,267.96 345.24,267.80 348.17,267.64 351.09,267.48 354.01,267.32 356.93,267.15 359.85,266.99 362.77,266.81 365.70,266.64 368.62,266.46 371.54,266.28 374.46,266.10 377.38,265.91 380.30,265.72 383.23,265.53 386.15,265.33 389.07,265.12 391.99,264.92 394.91,264.71 397.83,264.49 400.76,264.27 403.68,264.05 406.60,263.83 409.52,263.59 412.44,263.36 415.36,263.12 418.29,262.88 421.21,262.63 424.13,262.38 427.05,262.13 429.97,261.87 432.89,261.61 435.82,261.34 438.74,261.08 441.66,260.81 444.58,260.53 447.50,260.26 450.42,259.98 453.35,259.70 456.27,259.42 459.19,259.14 462.11,258.86 465.03,258.58 467.95,258.30 470.88,258.03 473.80,257.75 476.72,257.47 479.64,257.19 482.56,256.92 485.48,256.65 488.41,256.38 491.33,256.11 494.25,255.85 497.17,255.59 500.09,255.32 503.01,255.06 505.94,254.80 508.86,254.54 511.78,254.28 514.70,254.02 517.62,253.76 520.54,253.50 523.47,253.24 526.39,252.98 529.31,252.72 532.23,252.45 535.15,252.19 538.07,251.93 541.00,251.68 543.92,251.42 546.84,251.16 549.76,250.91 552.68,250.66 555.60,250.40 558.53,250.15 561.45,249.90 564.37,249.64 567.29,249.39 570.21,249.13 573.13,248.86 576.06,248.60 578.98,248.33 581.90,248.06 584.82,247.79 587.74,247.51 590.66,247.23 593.59,246.94 596.51,246.65 599.43,246.36 602.35,246.07 605.27,245.77 608.19,245.47 611.12,245.16 614.04,244.85 616.96,244.54 619.88,244.22 622.80,243.90 625.72,243.58 628.65,243.25 631.57,242.92 634.49,242.59 637.41,242.25 640.33,241.91 643.25,241.57 646.18,241.22 649.10,240.87 652.02,240.51 654.94,240.15 657.86,239.79 660.78,239.42 663.71,239.05 666.63,238.68 669.55,238.30 672.47,237.92 675.39,237.54 678.31,237.15 681.24,236.76 684.16,236.36 687.08,235.96 690.00,235.56 692.92,235.15 695.84,234.74 698.77,234.33 701.69,233.91 704.61,233.49 707.53,233.06 710.45,232.63 713.37,232.20 716.30,231.76 719.22,231.32 722.14,230.88 725.06,230.43 727.98,229.97 730.90,229.52 733.83,229.06 736.75,228.59 739.67,228.13 742.59,227.65 745.51,227.18 748.43,226.70 751.36,226.21 754.28,225.72 757.20,225.23 760.12,224.74 763.04,224.24 765.96,223.73 768.89,223.23 771.81,222.73 774.73,222.25 777.65,221.77 780.57,221.31 783.49,220.87 786.42,220.43 789.34,220.01 792.26,219.58 795.18,219.15 798.10,218.72 801.02,218.29 803.95,217.86 806.87,217.43 809.79,217.00 812.71,216.57 815.63,216.14 818.55,215.71 821.48,215.27 824.40,214.84 827.32,214.41 830.24,213.99 833.16,213.56 836.08,213.13 839.01,212.71 841.93,212.29 844.85,211.86 847.77,211.45 850.69,211.03 853.61,210.60 856.54,210.17 859.46,209.73 862.38,209.27 865.30,208.80 868.22,208.32 871.14,207.84 874.07,207.36 876.99,206.88 879.91,206.41 882.83,205.94 885.75,205.47 888.67,205.01 891.60,204.55 894.52,204.09 897.44,203.63 900.36,203.18 903.28,202.72 906.20,202.27 909.13,201.82 912.05,201.37 914.97,200.92 917.89,200.47 920.81,200.02 923.73,199.57 926.66,199.13 929.58,198.68 932.50,198.23 935.42,197.78 938.34,197.33 941.26,196.88 944.19,196.42 947.11,195.96 950.03,195.50 952.95,195.05 955.87,194.58 958.79,194.12 961.72,193.66 964.64,193.20 967.56,192.74 970.48,192.28 973.40,191.82 976.32,191.36 979.25,190.90 982.17,190.44 985.09,189.98 988.01,189.51 990.93,189.03 993.85,188.53 996.78,188.02 999.70,187.50 1002.62,186.98 1005.54,186.46 1008.46,185.94 1011.38,185.41 1014.30,184.88 1017.23,184.36 1020.15,183.83 1023.07,183.30 1025.99,182.77 1028.91,182.24 1031.83,181.72 1034.76,181.18 1037.68,180.63 1040.60,180.03 1043.52,179.37 1046.44,178.68 1049.36,177.97 1052.29,177.27 1055.21,176.56 1058.13,175.85 1061.05,175.14 1063.97,174.43 1066.89,173.71 1069.82,173.00 1072.74,172.27 1075.66,171.51 1078.58,170.65 1081.50,169.73 1084.42,168.80 1087.35,167.87 1090.27,166.94 1093.19,166.00 1096.11,165.06 1099.03,164.12 1101.95,163.18 1104.00,162.52"/><polyline fill="none" stroke="#16a34a" stroke-width="1.8" points="56.00,444.00 58.92,444.00 61.84,444.00 64.76,444.00 67.69,444.00 70.61,444.00 73.53,443.99 76.45,443.99 79.37,443.99 82.29,443.98 85.22,443.97 88.14,443.96 91.06,443.95 93.98,443.94 96.90,443.93 99.82,443.91 102.75,443.89 105.67,443.87 108.59,443.85 111.51,443.83 114.43,443.80 117.35,443.77 120.28,443.74 123.20,443.71 126.12,443.67 129.04,443.64 131.96,443.60 134.88,443.56 137.81,443.52 140.73,443.47 143.65,443.42 146.57,443.38 149.49,443.33 152.41,443.27 155.34,443.22 158.26,443.16 161.18,443.10 164.10,443.04 167.02,442.98 169.94,442.92 172.87,442.85 175.79,442.78 178.71,442.71 181.63,442.64 184.55,442.57 187.47,442.49 190.40,442.41 193.32,442.33 196.24,442.25 199.16,442.16 202.08,442.08 205.00,441.99 207.93,441.90 210.85,441.80 213.77,441.71 216.69,441.61 219.61,441.51 222.53,441.41 225.46,441.31 228.38,441.21 231.30,441.10 234.22,441.00 237.14,440.89 240.06,440.78 242.99,440.67 245.91,440.57 248.83,440.46 251.75,440.35 254.67,440.24 257.59,440.13 260.52,440.02 263.44,439.91 266.36,439.80 269.28,439.69 272.20,439.59 275.12,439.48 278.05,439.38 280.97,439.28 283.89,439.18 286.81,439.08 289.73,438.98 292.65,438.88 295.58,438.79 298.50,438.70 301.42,438.61 304.34,438.52 307.26,438.44 310.18,438.35 313.11,438.27 316.03,438.19 318.95,438.11 321.87,438.02 324.79,437.95 327.71,437.87 330.64,437.79 333.56,437.71 336.48,437.63 339.40,437.55 342.32,437.47 345.24,437.39 348.17,437.31 351.09,437.23 354.01,437.15 356.93,437.07 359.85,436.98 362.77,436.90 365.70,436.81 368.62,436.72 371.54,436.63 374.46,436.54 377.38,436.45 380.30,436.35 383.23,436.25 386.15,436.15 389.07,436.05 391.99,435.95 394.91,435.84 397.83,435.74 400.76,435.63 403.68,435.52 406.60,435.40 409.52,435.29 412.44,435.17 415.36,435.05 418.29,434.93 421.21,434.81 424.13,434.68 427.05,434.56 429.97,434.43 432.89,434.30 435.82,434.16 438.74,434.03 441.66,433.89 444.58,433.76 447.50,433.62 450.42,433.48 453.35,433.34 456.27,433.20 459.19,433.06 462.11,432.92 465.03,432.78 467.95,432.64 470.88,432.50 473.80,432.36 476.72,432.23 479.64,432.09 482.56,431.95 485.48,431.82 488.41,431.68 491.33,431.55 494.25,431.42 497.17,431.28 500.09,431.15 503.01,431.02 505.94,430.89 508.86,430.76 511.78,430.63 514.70,430.50 517.62,430.37 520.54,430.24 523.47,430.10 526.39,429.97 529.31,429.83 532.23,429.69 535.15,429.54 538.07,429.39 541.00,429.23 543.92,429.07 546.84,428.90 549.76,428.73 552.68,428.55 555.60,428.36 558.53,428.17 561.45,427.98 564.37,427.78 567.29,427.58 570.21,427.37 573.13,427.17 576.06,426.95 578.98,426.74 581.90,426.52 584.82,426.30 587.74,426.08 590.66,425.86 593.59,425.63 596.51,425.40 599.43,425.16 602.35,424.93 605.27,424.69 608.19,424.45 611.12,424.20 614.04,423.96 616.96,423.71 619.88,423.45 622.80,423.20 625.72,422.94 628.65,422.68 631.57,422.41 634.49,422.15 637.41,421.88 640.33,421.60 643.25,421.33 646.18,421.05 649.10,420.77 652.02,420.48 654.94,420.20 657.86,419.91 660.78,419.61 663.71,419.32 666.63,419.02 669.55,418.72 672.47,418.41 675.39,418.10 678.31,417.79 681.24,417.48 684.16,417.16 687.08,416.84 690.00,416.52 692.92,416.20 695.84,415.87 698.77,415.54 701.69,415.20 704.61,414.86 707.53,414.52 710.45,414.18 713.37,413.83 716.30,413.48 719.22,413.13 722.14,412.78 725.06,412.42 727.98,412.06 730.90,411.69 733.83,411.32 736.75,410.95 739.67,410.58 742.59,410.20 745.51,409.82 748.43,409.43 751.36,409.05 754.28,408.65 757.20,408.26 760.12,407.86 763.04,407.46 765.96,407.06 768.89,406.65 771.81,406.24 774.73,405.83 777.65,405.41 780.57,404.99 783.49,404.57 786.42,404.15 789.34,403.73 792.26,403.30 795.18,402.88 798.10,402.45 801.02,402.02 803.95,401.59 806.87,401.16 809.79,400.73 812.71,400.29 815.63,399.86 818.55,399.43 821.48,399.00 824.40,398.57 827.32,398.14 830.24,397.71 833.16,397.28 836.08,396.86 839.01,396.43 841.93,396.01 844.85,395.59 847.77,395.17 850.69,394.76 853.61,394.34 856.54,393.93 859.46,393.51 862.38,393.10 865.30,392.68 868.22,392.27 871.14,391.86 874.07,391.45 876.99,391.04 879.91,390.63 882.83,390.23 885.75,389.83 888.67,389.43 891.60,389.04 894.52,388.64 897.44,388.25 900.36,387.86 903.28,387.47 906.20,387.09 909.13,386.70 912.05,386.31 914.97,385.93 917.89,385.54 920.81,385.16 923.73,384.77 926.66,384.39 929.58,384.01 932.50,383.62 935.42,383.24 938.34,382.85 941.26,382.46 944.19,382.07 947.11,381.68 950.03,381.29 952.95,380.89 955.87,380.50 958.79,380.10 961.72,379.71 964.64,379.31 967.56,378.91 970.48,378.52 973.40,378.12 976.32,377.73 979.25,377.34 982.17,376.94 985.09,376.55 988.01,376.15 990.93,375.74 993.85,375.32 996.78,374.90 999.70,374.47 1002.62,374.03 1005.54,373.60 1008.46,373.16 1011.38,372.72 1014.30,372.28 1017.23,371.84 1020.15,371.40 1023.07,370.96 1025.99,370.52 1028.91,370.08 1031.83,369.64 1034.76,369.20 1037.68,368.74 1040.60,368.24 1043.52,367.69 1046.44,367.11 1049.36,366.53 1052.29,365.94 1055.21,365.35 1058.13,364.76 1061.05,364.16 1063.97,363.57 1066.89,362.97 1069.82,362.38 1072.74,361.78 1075.66,361.17 1078.58,360.55 1081.50,359.93 1084.42,359.31 1087.35,358.69 1090.27,358.07 1093.19,357.44 1096.11,356.82 1099.03,356.19 1101.95,355.56 1104.00,355.12"/><polyline fill="none" stroke="#7c3aed" stroke-width="1.8" points="56.00,103.22 58.92,103.22 61.84,103.22 64.76,103.22 67.69,103.22 70.61,103.22 73.53,103.22 76.45,103.22 79.37,103.21 82.29,103.21 85.22,103.21 88.14,103.21 91.06,103.20 93.98,103.20 96.90,103.19 99.82,103.18 102.75,103.18 105.67,103.17 108.59,103.16 111.51,103.15 114.43,103.14 117.35,103.13 120.28,103.12 123.20,103.10 126.12,103.09 129.04,103.07 131.96,103.06 134.88,103.04 137.81,103.03 140.73,103.01 143.65,102.99 146.57,102.97 149.49,102.95 152.41,102.93 155.34,102.91 158.26,102.89 161.18,102.86 164.10,102.84 167.02,102.81 169.94,102.79 172.87,102.76 175.79,102.73 178.71,102.71 181.63,102.68 184.55,102.65 187.47,102.62 190.40,102.58 193.32,102.55 196.24,102.52 199.16,102.49 202.08,102.45 205.00,102.42 207.93,102.38 210.85,102.34 213.77,102.30 216.69,102.27 219.61,102.23 222.53,102.19 225.46,102.15 228.38,102.10 231.30,102.06 234.22,102.02 237.14,101.98 240.06,101.93 242.99,101.89 245.91,101.85 248.83,101.80 251.75,101.76 254.67,101.72 257.59,101.67 260.52,101.63 263.44,101.58 266.36,101.54 269.28,101.50 272.20,101.46 275.12,101.41 278.05,101.37 280.97,101.33 283.89,101.29 286.81,101.25 289.73,101.21 292.65,101.17 295.58,101.14 298.50,101.10 301.42,101.06 304.34,101.03 307.26,100.99 310.18,100.96 313.11,100.93 316.03,100.89 318.95,100.86 321.87,100.83 324.79,100.80 327.71,100.77 330.64,100.73 333.56,100.70 336.48,100.67 339.40,100.64 342.32,100.61 345.24,100.57 348.17,100.54 351.09,100.51 354.01,100.47 356.93,100.43 359.85,100.40 362.77,100.36 365.70,100.32 368.62,100.28 371.54,100.23 374.46,100.19 377.38,100.14 380.30,100.09 383.23,100.03 386.15,99.98 389.07,99.92 391.99,99.86 394.91,99.80 397.83,99.74 400.76,99.68 403.68,99.61 406.60,99.54 409.52,99.47 412.44,99.40 415.36,99.33 418.29,99.26 421.21,99.19 424.13,99.11 427.05,99.04 429.97,98.96 432.89,98.88 435.82,98.80 438.74,98.72 441.66,98.64 444.58,98.56 447.50,98.47 450.42,98.39 453.35,98.31 456.27,98.22 459.19,98.14 462.11,98.06 465.03,97.97 467.95,97.89 470.88,97.80 473.80,97.72 476.72,97.64 479.64,97.55 482.56,97.47 485.48,97.39 488.41,97.31 491.33,97.23 494.25,97.15 497.17,97.07 500.09,96.99 503.01,96.92 505.94,96.84 508.86,96.76 511.78,96.68 514.70,96.60 517.62,96.52 520.54,96.44 523.47,96.36 526.39,96.28 529.31,96.20 532.23,96.11 535.15,96.02 538.07,95.93 541.00,95.83 543.92,95.73 546.84,95.63 549.76,95.52 552.68,95.41 555.60,95.30 558.53,95.18 561.45,95.06 564.37,94.93 567.29,94.81 570.21,94.68 573.13,94.55 576.06,94.42 578.98,94.28 581.90,94.15 584.82,94.01 587.74,93.87 590.66,93.73 593.59,93.59 596.51,93.45 599.43,93.30 602.35,93.15 605.27,93.00 608.19,92.85 611.12,92.70 614.04,92.54 616.96,92.39 619.88,92.23 622.80,92.07 625.72,91.91 628.65,91.75 631.57,91.58 634.49,91.41 637.41,91.24 640.33,91.07 643.25,90.90 646.18,90.73 649.10,90.55 652.02,90.37 654.94,90.19 657.86,90.01 660.78,89.83 663.71,89.65 666.63,89.46 669.55,89.27 672.47,89.08 675.39,88.89 678.31,88.69 681.24,88.50 684.16,88.30 687.08,88.10 690.00,87.90 692.92,87.70 695.84,87.49 698.77,87.28 701.69,87.07 704.61,86.86 707.53,86.65 710.45,86.44 713.37,86.22 716.30,86.00 719.22,85.78 722.14,85.56 725.06,85.33 727.98,85.11 730.90,84.88 733.83,84.65 736.75,84.42 739.67,84.18 742.59,83.95 745.51,83.71 748.43,83.47 751.36,83.23 754.28,82.98 757.20,82.74 760.12,82.49 763.04,82.24 765.96,81.98 768.89,81.72 771.81,81.45 774.73,81.16 777.65,80.86 780.57,80.53 783.49,80.19 786.42,79.83 789.34,79.46 792.26,79.09 795.18,78.72 798.10,78.34 801.02,77.97 803.95,77.59 806.87,77.22 809.79,76.84 812.71,76.46 815.63,76.08 818.55,75.71 821.48,75.33 824.40,74.95 827.32,74.57 830.24,74.20 833.16,73.83 836.08,73.45 839.01,73.08 841.93,72.71 844.85,72.35 847.77,71.98 850.69,71.62 853.61,71.27 856.54,70.93 859.46,70.60 862.38,70.30 865.30,70.00 868.22,69.72 871.14,69.45 874.07,69.17 876.99,68.90 879.91,68.63 882.83,68.36 885.75,68.09 888.67,67.83 891.60,67.57 894.52,67.30 897.44,67.04 900.36,66.78 903.28,66.52 906.20,66.26 909.13,66.01 912.05,65.75 914.97,65.49 917.89,65.24 920.81,64.98 923.73,64.72 926.66,64.47 929.58,64.21 932.50,63.96 935.42,63.70 938.34,63.44 941.26,63.18 944.19,62.92 947.11,62.66 950.03,62.40 952.95,62.14 955.87,61.87 958.79,61.61 961.72,61.35 964.64,61.08 967.56,60.82 970.48,60.55 973.40,60.29 976.32,60.03 979.25,59.77 982.17,59.51 985.09,59.25 988.01,59.01 990.93,58.78 993.85,58.58 996.78,58.40 999.70,58.22 1002.62,58.05 1005.54,57.87 1008.46,57.70 1011.38,57.52 1014.30,57.35 1017.23,57.17 1020.15,56.99 1023.07,56.82 1025.99,56.64 1028.91,56.47 1031.83,56.29 1034.76,56.13 1037.68,56.01 1040.60,56.00 1043.52,56.13 1046.44,56.34 1049.36,56.57 1052.29,56.81 1055.21,57.04 1058.13,57.28 1061.05,57.52 1063.97,57.75 1066.89,57.99 1069.82,58.23 1072.74,58.48 1075.66,58.80 1078.58,59.27 1081.50,59.87 1084.42,60.49 1087.35,61.11 1090.27,61.73 1093.19,62.35 1096.11,62.98 1099.03,63.61 1101.95,64.24 1104.00,64.68"/><polyline fill="none" stroke="#d97706" stroke-width="1.8" points="56.00,281.02 58.92,281.02 61.84,281.02 64.76,281.02 67.69,281.02 70.61,281.02 73.53,281.01 76.45,281.01 79.37,281.00 82.29,281.00 85.22,280.99 88.14,280.98 91.06,280.97 93.98,280.96 96.90,280.95 99.82,280.93 102.75,280.91 105.67,280.89 108.59,280.87 111.51,280.84 114.43,280.82 117.35,280.79 120.28,280.76 123.20,280.73 126.12,280.69 129.04,280.66 131.96,280.62 134.88,280.58 137.81,280.53 140.73,280.49 143.65,280.44 146.57,280.39 149.49,280.34 152.41,280.29 155.34,280.24 158.26,280.18 161.18,280.12 164.10,280.06 167.02,280.00 169.94,279.94 172.87,279.87 175.79,279.80 178.71,279.73 181.63,279.66 184.55,279.58 187.47,279.51 190.40,279.43 193.32,279.35 196.24,279.27 199.16,279.18 202.08,279.09 205.00,279.01 207.93,278.92 210.85,278.82 213.77,278.73 216.69,278.63 219.61,278.53 222.53,278.43 225.46,278.33 228.38,278.23 231.30,278.12 234.22,278.02 237.14,277.91 240.06,277.80 242.99,277.69 245.91,277.58 248.83,277.47 251.75,277.37 254.67,277.26 257.59,277.15 260.52,277.04 263.44,276.93 266.36,276.82 269.28,276.71 272.20,276.61 275.12,276.50 278.05,276.40 280.97,276.30 283.89,276.19 286.81,276.09 289.73,276.00 292.65,275.90 295.58,275.81 298.50,275.72 301.42,275.63 304.34,275.54 307.26,275.45 310.18,275.37 313.11,275.29 316.03,275.20 318.95,275.12 321.87,275.04 324.79,274.96 327.71,274.88 330.64,274.81 333.56,274.73 336.48,274.65 339.40,274.57 342.32,274.49 345.24,274.41 348.17,274.33 351.09,274.25 354.01,274.17 356.93,274.09 359.85,274.00 362.77,273.92 365.70,273.83 368.62,273.74 371.54,273.65 374.46,273.56 377.38,273.47 380.30,273.37 383.23,273.27 386.15,273.17 389.07,273.07 391.99,272.97 394.91,272.86 397.83,272.76 400.76,272.65 403.68,272.53 406.60,272.42 409.52,272.31 412.44,272.19 415.36,272.07 418.29,271.95 421.21,271.83 424.13,271.70 427.05,271.57 429.97,271.44 432.89,271.31 435.82,271.18 438.74,271.05 441.66,270.91 444.58,270.78 447.50,270.64 450.42,270.50 453.35,270.36 456.27,270.22 459.19,270.08 462.11,269.94 465.03,269.80 467.95,269.66 470.88,269.52 473.80,269.38 476.72,269.24 479.64,269.11 482.56,268.97 485.48,268.83 488.41,268.70 491.33,268.57 494.25,268.43 497.17,268.30 500.09,268.17 503.01,268.04 505.94,267.91 508.86,267.78 511.78,267.65 514.70,267.52 517.62,267.39 520.54,267.26 523.47,267.13 526.39,267.00 529.31,266.87 532.23,266.74 535.15,266.61 538.07,266.48 541.00,266.35 543.92,266.22 546.84,266.09 549.76,265.96 552.68,265.84 555.60,265.71 558.53,265.58 561.45,265.46 564.37,265.33 567.29,265.20 570.21,265.07 573.13,264.94 576.06,264.81 578.98,264.68 581.90,264.54 584.82,264.40 587.74,264.26 590.66,264.12 593.59,263.98 596.51,263.84 599.43,263.69 602.35,263.54 605.27,263.39 608.19,263.24 611.12,263.09 614.04,262.93 616.96,262.78 619.88,262.62 622.80,262.46 625.72,262.30 628.65,262.14 631.57,261.97 634.49,261.80 637.41,261.63 640.33,261.46 643.25,261.29 646.18,261.12 649.10,260.94 652.02,260.76 654.94,260.58 657.86,260.40 660.78,260.22 663.71,260.04 666.63,259.85 669.55,259.66 672.47,259.47 675.39,259.28 678.31,259.08 681.24,258.89 684.16,258.69 687.08,258.49 690.00,258.29 692.92,258.09 695.84,257.88 698.77,257.67 701.69,257.46 704.61,257.25 707.53,257.04 710.45,256.83 713.37,256.61 716.30,256.39 719.22,256.17 722.14,255.95 725.06,255.72 727.98,255.50 730.90,255.27 733.83,255.04 736.75,254.81 739.67,254.57 742.59,254.34 745.51,254.10 748.43,253.86 751.36,253.62 754.28,253.37 757.20,253.13 760.12,252.88 763.04,252.63 765.96,252.38 768.89,252.13 771.81,251.88 774.73,251.63 777.65,251.39 780.57,251.17 783.49,250.94 786.42,250.73 789.34,250.51 792.26,250.30 795.18,250.08 798.10,249.87 801.02,249.66 803.95,249.44 806.87,249.23 809.79,249.01 812.71,248.79 815.63,248.58 818.55,248.36 821.48,248.15 824.40,247.93 827.32,247.72 830.24,247.50 833.16,247.29 836.08,247.08 839.01,246.86 841.93,246.65 844.85,246.44 847.77,246.23 850.69,246.02 853.61,245.80 856.54,245.58 859.46,245.34 862.38,245.09 865.30,244.83 868.22,244.55 871.14,244.28 874.07,244.01 876.99,243.73 879.91,243.46 882.83,243.20 885.75,242.93 888.67,242.66 891.60,242.40 894.52,242.14 897.44,241.88 900.36,241.62 903.28,241.36 906.20,241.10 909.13,240.84 912.05,240.59 914.97,240.33 917.89,240.08 920.81,239.85 923.73,239.64 926.66,239.46 929.58,239.31 932.50,239.17 935.42,239.03 938.34,238.90 941.26,238.77 944.19,238.64 947.11,238.51 950.03,238.38 952.95,238.25 955.87,238.12 958.79,237.99 961.72,237.86 964.64,237.72 967.56,237.59 970.48,237.46 973.40,237.33 976.32,237.20 979.25,237.07 982.17,236.93 985.09,236.80 988.01,236.66 990.93,236.51 993.85,236.36 996.78,236.19 999.70,236.02 1002.62,235.84 1005.54,235.67 1008.46,235.50 1011.38,235.32 1014.30,235.14 1017.23,234.97 1020.15,234.79 1023.07,234.62 1025.99,234.44 1028.91,234.27 1031.83,234.09 1034.76,233.93 1037.68,233.81 1040.60,233.80 1043.52,233.92 1046.44,234.14 1049.36,234.37 1052.29,234.60 1055.21,234.84 1058.13,235.08 1061.05,235.31 1063.97,235.55 1066.89,235.79 1069.82,236.03 1072.74,236.28 1075.66,236.63 1078.58,237.20 1081.50,237.94 1084.42,238.71 1087.35,239.49 1090.27,240.27 1093.19,241.05 1096.11,241.83 1099.03,242.61 1101.95,243.40 1104.00,243.95"/><polyline fill="none" stroke="#dc2626" stroke-width="1.8" points="56.00,147.67 58.92,147.67 61.84,147.67 64.76,147.67 67.69,147.67 70.61,147.67 73.53,147.67 76.45,147.67 79.37,147.68 82.29,147.68 85.22,147.68 88.14,147.68 91.06,147.69 93.98,147.69 96.90,147.70 99.82,147.71 102.75,147.71 105.67,147.72 108.59,147.73 111.51,147.74 114.43,147.75 117.35,147.76 120.28,147.77 123.20,147.79 126.12,147.80 129.04,147.82 131.96,147.83 134.88,147.85 137.81,147.86 140.73,147.88 143.65,147.90 146.57,147.92 149.49,147.94 152.41,147.96 155.34,147.98 158.26,148.00 161.18,148.03 164.10,148.05 167.02,148.08 169.94,148.10 172.87,148.13 175.79,148.16 178.71,148.18 181.63,148.21 184.55,148.24 187.47,148.27 190.40,148.31 193.32,148.34 196.24,148.37 199.16,148.40 202.08,148.44 205.00,148.47 207.93,148.51 210.85,148.55 213.77,148.59 216.69,148.62 219.61,148.66 222.53,148.70 225.46,148.74 228.38,148.79 231.30,148.83 234.22,148.87 237.14,148.91 240.06,148.96 242.99,149.00 245.91,149.04 248.83,149.09 251.75,149.13 254.67,149.17 257.59,149.22 260.52,149.26 263.44,149.31 266.36,149.35 269.28,149.39 272.20,149.43 275.12,149.48 278.05,149.52 280.97,149.56 283.89,149.60 286.81,149.64 289.73,149.68 292.65,149.72 295.58,149.75 298.50,149.79 301.42,149.83 304.34,149.86 307.26,149.90 310.18,149.93 313.11,149.96 316.03,150.00 318.95,150.03 321.87,150.06 324.79,150.09 327.71,150.12 330.64,150.15 333.56,150.19 336.48,150.22 339.40,150.25 342.32,150.28 345.24,150.31 348.17,150.34 351.09,150.38 354.01,150.41 356.93,150.44 359.85,150.48 362.77,150.51 365.70,150.55 368.62,150.58 371.54,150.62 374.46,150.65 377.38,150.69 380.30,150.73 383.23,150.77 386.15,150.81 389.07,150.85 391.99,150.89 394.91,150.93 397.83,150.98 400.76,151.02 403.68,151.06 406.60,151.11 409.52,151.15 412.44,151.20 415.36,151.25 418.29,151.30 421.21,151.35 424.13,151.40 427.05,151.45 429.97,151.50 432.89,151.55 435.82,151.60 438.74,151.66 441.66,151.71 444.58,151.77 447.50,151.82 450.42,151.88 453.35,151.93 456.27,151.99 459.19,152.04 462.11,152.10 465.03,152.16 467.95,152.21 470.88,152.27 473.80,152.32 476.72,152.38 479.64,152.43 482.56,152.49 485.48,152.54 488.41,152.60 491.33,152.65 494.25,152.70 497.17,152.76 500.09,152.81 503.01,152.86 505.94,152.91 508.86,152.97 511.78,153.02 514.70,153.07 517.62,153.12 520.54,153.17 523.47,153.23 526.39,153.28 529.31,153.33 532.23,153.38 535.15,153.43 538.07,153.49 541.00,153.54 543.92,153.59 546.84,153.64 549.76,153.69 552.68,153.74 555.60,153.79 558.53,153.84 561.45,153.89 564.37,153.94 567.29,154.00 570.21,154.05 573.13,154.10 576.06,154.15 578.98,154.21 581.90,154.26 584.82,154.32 587.74,154.37 590.66,154.43 593.59,154.49 596.51,154.54 599.43,154.60 602.35,154.66 605.27,154.72 608.19,154.78 611.12,154.84 614.04,154.90 616.96,154.97 619.88,155.03 622.80,155.09 625.72,155.16 628.65,155.22 631.57,155.29 634.49,155.36 637.41,155.42 640.33,155.49 643.25,155.56 646.18,155.63 649.10,155.70 652.02,155.77 654.94,155.84 657.86,155.92 660.78,155.99 663.71,156.06 666.63,156.14 669.55,156.21 672.47,156.29 675.39,156.37 678.31,156.44 681.24,156.52 684.16,156.60 687.08,156.68 690.00,156.76 692.92,156.84 695.84,156.93 698.77,157.01 701.69,157.09 704.61,157.18 707.53,157.26 710.45,157.35 713.37,157.43 716.30,157.52 719.22,157.61 722.14,157.70 725.06,157.79 727.98,157.88 730.90,157.97 733.83,158.06 736.75,158.15 739.67,158.25 742.59,158.34 745.51,158.44 748.43,158.53 751.36,158.63 754.28,158.73 757.20,158.83 760.12,158.93 763.04,159.03 765.96,159.13 768.89,159.23 771.81,159.33 774.73,159.44 777.65,159.54 780.57,159.64 783.49,159.75 786.42,159.85 789.34,159.96 792.26,160.07 795.18,160.17 798.10,160.28 801.02,160.39 803.95,160.50 806.87,160.60 809.79,160.71 812.71,160.82 815.63,160.93 818.55,161.03 821.48,161.14 824.40,161.25 827.32,161.36 830.24,161.46 833.16,161.57 836.08,161.68 839.01,161.78 841.93,161.89 844.85,161.99 847.77,162.10 850.69,162.21 853.61,162.31 856.54,162.43 859.46,162.54 862.38,162.67 865.30,162.80 868.22,162.94 871.14,163.08 874.07,163.21 876.99,163.35 879.91,163.48 882.83,163.62 885.75,163.75 888.67,163.88 891.60,164.02 894.52,164.15 897.44,164.28 900.36,164.41 903.28,164.54 906.20,164.67 909.13,164.79 912.05,164.92 914.97,165.05 917.89,165.18 920.81,165.31 923.73,165.44 926.66,165.56 929.58,165.69 932.50,165.82 935.42,165.95 938.34,166.08 941.26,166.21 944.19,166.34 947.11,166.47 950.03,166.60 952.95,166.73 955.87,166.86 958.79,166.99 961.72,167.13 964.64,167.26 967.56,167.39 970.48,167.52 973.40,167.65 976.32,167.78 979.25,167.92 982.17,168.05 985.09,168.18 988.01,168.32 990.93,168.47 993.85,168.63 996.78,168.79 999.70,168.96 1002.62,169.14 1005.54,169.31 1008.46,169.49 1011.38,169.66 1014.30,169.84 1017.23,170.01 1020.15,170.19 1023.07,170.36 1025.99,170.54 1028.91,170.72 1031.83,170.89 1034.76,171.07 1037.68,171.26 1040.60,171.46 1043.52,171.67 1046.44,171.91 1049.36,172.14 1052.29,172.38 1055.21,172.61 1058.13,172.85 1061.05,173.09 1063.97,173.32 1066.89,173.56 1069.82,173.80 1072.74,174.04 1075.66,174.30 1078.58,174.58 1081.50,174.89 1084.42,175.20 1087.35,175.51 1090.27,175.82 1093.19,176.13 1096.11,176.44 1099.03,176.76 1101.95,177.07 1104.00,177.29"/><polyline fill="none" stroke="#0ea5a8" stroke-width="1.8" points="56.00,281.02 58.92,281.02 61.84,281.02 64.76,281.02 67.69,281.01 70.61,281.01 73.53,281.01 76.45,281.00 79.37,280.99 82.29,280.98 85.22,280.97 88.14,280.95 91.06,280.93 93.98,280.90 96.90,280.87 99.82,280.84 102.75,280.80 105.67,280.76 108.59,280.72 111.51,280.67 114.43,280.62 117.35,280.56 120.28,280.50 123.20,280.43 126.12,280.36 129.04,280.29 131.96,280.22 134.88,280.13 137.81,280.05 140.73,279.96 143.65,279.87 146.57,279.77 149.49,279.67 152.41,279.57 155.34,279.46 158.26,279.34 161.18,279.23 164.10,279.11 167.02,278.98 169.94,278.85 172.87,278.72 175.79,278.58 178.71,278.44 181.63,278.30 184.55,278.15 187.47,278.00 190.40,277.84 193.32,277.68 196.24,277.51 199.16,277.34 202.08,277.17 205.00,276.99 207.93,276.81 210.85,276.63 213.77,276.44 216.69,276.25 219.61,276.05 222.53,275.85 225.46,275.64 228.38,275.44 231.30,275.23 234.22,275.01 237.14,274.80 240.06,274.58 242.99,274.37 245.91,274.15 248.83,273.93 251.75,273.71 254.67,273.49 257.59,273.27 260.52,273.06 263.44,272.84 266.36,272.62 269.28,272.41 272.20,272.20 275.12,271.98 278.05,271.78 280.97,271.57 283.89,271.37 286.81,271.17 289.73,270.98 292.65,270.79 295.58,270.60 298.50,270.42 301.42,270.24 304.34,270.06 307.26,269.89 310.18,269.72 313.11,269.56 316.03,269.39 318.95,269.23 321.87,269.07 324.79,268.91 327.71,268.75 330.64,268.59 333.56,268.44 336.48,268.28 339.40,268.12 342.32,267.96 345.24,267.80 348.17,267.64 351.09,267.48 354.01,267.32 356.93,267.15 359.85,266.99 362.77,266.81 365.70,266.64 368.62,266.46 371.54,266.28 374.46,266.10 377.38,265.91 380.30,265.72 383.23,265.53 386.15,265.33 389.07,265.12 391.99,264.92 394.91,264.71 397.83,264.49 400.76,264.27 403.68,264.05 406.60,263.83 409.52,263.59 412.44,263.36 415.36,263.12 418.29,262.88 421.21,262.63 424.13,262.38 427.05,262.13 429.97,261.87 432.89,261.61 435.82,261.34 438.74,261.08 441.66,260.81 444.58,260.53 447.50,260.26 450.42,259.98 453.35,259.70 456.27,259.42 459.19,259.14 462.11,258.86 465.03,258.58 467.95,258.30 470.88,258.03 473.80,257.75 476.72,257.47 479.64,257.19 482.56,256.92 485.48,256.65 488.41,256.38 491.33,256.11 494.25,255.85 497.17,255.59 500.09,255.32 503.01,255.06 505.94,254.80 508.86,254.54 511.78,254.28 514.70,254.02 517.62,253.76 520.54,253.50 523.47,253.24 526.39,252.98 529.31,252.72 532.23,252.45 535.15,252.19 538.07,251.93 541.00,251.68 543.92,251.42 546.84,251.16 549.76,250.91 552.68,250.66 555.60,250.40 558.53,250.15 561.45,249.90 564.37,249.64 567.29,249.39 570.21,249.13 573.13,248.86 576.06,248.60 578.98,248.33 581.90,248.06 584.82,247.79 587.74,247.51 590.66,247.23 593.59,246.94 596.51,246.65 599.43,246.36 602.35,246.07 605.27,245.77 608.19,245.47 611.12,245.16 614.04,244.85 616.96,244.54 619.88,244.22 622.80,243.90 625.72,243.58 628.65,243.25 631.57,242.92 634.49,242.59 637.41,242.25 640.33,241.91 643.25,241.57 646.18,241.22 649.10,240.87 652.02,240.51 654.94,240.15 657.86,239.79 660.78,239.42 663.71,239.05 666.63,238.68 669.55,238.30 672.47,237.92 675.39,237.54 678.31,237.15 681.24,236.76 684.16,236.36 687.08,235.96 690.00,235.56 692.92,235.15 695.84,234.74 698.77,234.33 701.69,233.91 704.61,233.49 707.53,233.06 710.45,232.63 713.37,232.20 716.30,231.76 719.22,231.32 722.14,230.88 725.06,230.43 727.98,229.97 730.90,229.52 733.83,229.06 736.75,228.59 739.67,228.13 742.59,227.65 745.51,227.18 748.43,226.70 751.36,226.21 754.28,225.72 757.20,225.23 760.12,224.74 763.04,224.24 765.96,223.73 768.89,223.23 771.81,222.73 774.73,222.25 777.65,221.77 780.57,221.31 783.49,220.87 786.42,220.43 789.34,220.01 792.26,219.58 795.18,219.15 798.10,218.72 801.02,218.29 803.95,217.86 806.87,217.43 809.79,217.00 812.71,216.57 815.63,216.14 818.55,215.71 821.48,215.27 824.40,214.84 827.32,214.41 830.24,213.99 833.16,213.56 836.08,213.13 839.01,212.71 841.93,212.29 844.85,211.86 847.77,211.45 850.69,211.03 853.61,210.60 856.54,210.17 859.46,209.73 862.38,209.27 865.30,208.80 868.22,208.32 871.14,207.84 874.07,207.36 876.99,206.88 879.91,206.41 882.83,205.94 885.75,205.47 888.67,205.01 891.60,204.55 894.52,204.09 897.44,203.63 900.36,203.18 903.28,202.72 906.20,202.27 909.13,201.82 912.05,201.37 914.97,200.92 917.89,200.47 920.81,200.02 923.73,199.57 926.66,199.13 929.58,198.68 932.50,198.23 935.42,197.78 938.34,197.33 941.26,196.88 944.19,196.42 947.11,195.96 950.03,195.50 952.95,195.05 955.87,194.58 958.79,194.12 961.72,193.66 964.64,193.20 967.56,192.74 970.48,192.28 973.40,191.82 976.32,191.36 979.25,190.90 982.17,190.44 985.09,189.98 988.01,189.51 990.93,189.03 993.85,188.53 996.78,188.02 999.70,187.50 1002.62,186.98 1005.54,186.46 1008.46,185.94 1011.38,185.41 1014.30,184.88 1017.23,184.36 1020.15,183.83 1023.07,183.30 1025.99,182.77 1028.91,182.24 1031.83,181.72 1034.76,181.18 1037.68,180.63 1040.60,180.03 1043.52,179.37 1046.44,178.68 1049.36,177.97 1052.29,177.27 1055.21,176.56 1058.13,175.85 1061.05,175.14 1063.97,174.43 1066.89,173.71 1069.82,173.00 1072.74,172.27 1075.66,171.51 1078.58,170.65 1081.50,169.73 1084.42,168.80 1087.35,167.87 1090.27,166.94 1093.19,166.00 1096.11,165.06 1099.03,164.12 1101.95,163.18 1104.00,162.52"/>
  <rect x="780" y="20" width="10" height="10" fill="#0b7ad1"/><text x="796" y="29" font-family="Segoe UI, Arial" font-size="12" fill="#334155">J1</text><rect x="900" y="20" width="10" height="10" fill="#16a34a"/><text x="916" y="29" font-family="Segoe UI, Arial" font-size="12" fill="#334155">J2</text><rect x="1020" y="20" width="10" height="10" fill="#7c3aed"/><text x="1036" y="29" font-family="Segoe UI, Arial" font-size="12" fill="#334155">J3</text><rect x="780" y="40" width="10" height="10" fill="#d97706"/><text x="796" y="49" font-family="Segoe UI, Arial" font-size="12" fill="#334155">J4</text><rect x="900" y="40" width="10" height="10" fill="#dc2626"/><text x="916" y="49" font-family="Segoe UI, Arial" font-size="12" fill="#334155">J5</text><rect x="1020" y="40" width="10" height="10" fill="#0ea5a8"/><text x="1036" y="49" font-family="Segoe UI, Arial" font-size="12" fill="#334155">J6</text>
  <text x="580" y="488" font-family="Segoe UI, Arial" font-size="12" fill="#475569">Time [s] (0.00 .. 14.35)</text>
  <text x="10" y="250" transform="rotate(-90 10 250)" font-family="Segoe UI, Arial" font-size="12" fill="#475569">Joint Position [rad] (-1.10 .. 1.52)</text>
</svg>