<svg xmlns="http://www.w3.org/2000/svg" width="1160" height="460" viewBox="0 0 1160 460">
  <rect width="100%" height="100%" fill="#f8fbff"/>
  <text x="48" y="26" font-family="Segoe UI, Arial" font-size="18" fill="#1f2937" font-weight="700">Path Speed sd(t) (Demo Run)</text>
  <line x1="48" y1="412" x2="1112" y2="412" stroke="#94a3b8" stroke-width="1"/>
  <line x1="48" y1="48" x2="48" y2="412" stroke="#94a3b8" stroke-width="1"/>
  <polyline fill="none" stroke="#dc2626" stroke-width="2" points="48.00,412.00 52.30,411.80 56.60,411.21 60.90,410.21 65.20,408.82 69.50,407.03 73.80,404.85 78.10,402.27 82.40,399.29 86.70,395.94 91.00,392.51 95.31,389.09 99.61,385.66 103.91,382.24 108.21,378.81 112.51,375.39 116.81,371.96 121.11,368.54 125.41,365.11 129.71,361.69 134.01,358.26 138.31,354.83 142.61,351.41 146.91,347.98 151.21,344.56 155.51,341.13 159.81,337.71 164.11,334.28 168.41,330.86 172.71,327.43 177.01,324.01 181.32,320.58 185.62,317.16 189.92,313.73 194.22,310.31 198.52,306.88 202.82,303.46 207.12,300.03 211.42,296.64 215.72,293.58 220.02,290.92 224.32,288.66 228.62,286.79 232.92,285.32 237.22,284.25 241.52,283.57 245.82,283.30 250.12,283.42 254.42,283.93 258.72,284.85 263.02,286.16 267.32,287.87 271.63,289.97 275.93,292.48 280.23,295.38 284.53,298.67 288.83,302.10 293.13,305.52 297.43,308.75 301.73,311.58 306.03,314.01 310.33,316.05 314.63,317.68 318.93,318.92 323.23,319.77 327.53,320.21 331.83,320.26 336.13,319.92 340.43,319.18 344.73,318.04 349.03,316.51 353.33,314.58 357.64,312.25 361.94,309.52 366.24,306.40 370.54,302.99 374.84,299.56 379.14,296.13 383.44,292.71 387.74,289.28 392.04,285.86 396.34,282.43 400.64,279.01 404.94,275.58 409.24,272.16 413.54,268.73 417.84,265.31 422.14,261.88 426.44,258.62 430.74,255.75 435.04,253.28 439.34,251.21 443.64,249.54 447.95,248.26 452.25,247.38 456.55,246.90 460.85,246.81 465.15,247.12 469.45,247.83 473.75,248.94 478.05,250.44 482.35,252.34 486.65,254.50 490.95,256.32 495.25,257.74 499.55,258.77 503.85,259.40 508.15,259.63 512.45,259.47 516.75,258.91 521.05,257.95 525.35,256.59 529.65,254.84 533.96,252.69 538.26,250.14 542.56,247.19 546.86,243.87 551.16,240.44 555.46,237.02 559.76,233.59 564.06,230.17 568.36,226.74 572.66,223.32 576.96,219.89 581.26,216.47 585.56,213.04 589.86,209.62 594.16,206.19 598.46,202.77 602.76,199.34 607.06,195.92 611.36,192.49 615.66,189.07 619.96,185.64 624.27,182.21 628.57,178.79 632.87,175.36 637.17,171.94 641.47,168.51 645.77,165.09 650.07,161.66 654.37,158.24 658.67,154.81 662.97,151.39 667.27,147.96 671.57,144.54 675.87,141.11 680.17,137.69 684.47,134.26 688.77,130.84 693.07,127.41 697.37,123.99 701.67,120.56 705.97,117.14 710.28,113.71 714.58,110.29 718.88,106.86 723.18,103.44 727.48,100.01 731.78,96.59 736.08,93.16 740.38,89.73 744.68,86.31 748.98,82.88 753.28,79.46 757.58,76.03 761.88,72.61 766.18,69.18 770.48,65.76 774.78,62.34 779.08,59.15 783.38,56.37 787.68,53.98 791.98,51.99 796.28,50.40 800.59,49.20 804.89,48.40 809.19,48.00 813.49,48.00 817.79,48.39 822.09,49.18 826.39,50.37 830.69,51.96 834.99,53.94 839.29,56.32 843.59,59.10 847.89,62.28 852.19,65.70 856.49,69.12 860.79,72.55 865.09,75.97 869.39,79.40 873.69,82.82 877.99,86.25 882.29,89.67 886.60,93.10 890.90,96.52 895.20,99.77 899.50,102.62 903.80,105.08 908.10,107.13 912.40,108.79 916.70,110.05 921.00,110.92 925.30,111.39 929.60,111.46 933.90,111.13 938.20,110.42 942.50,109.30 946.80,107.83 951.10,106.60 955.40,105.76 959.70,105.31 964.00,105.27 968.30,105.62 972.60,106.37 976.91,107.52 981.21,108.99 985.51,110.20 989.81,111.01 994.11,111.42 998.41,111.44 1002.71,111.06 1007.01,110.29 1011.31,109.24 1015.61,108.50 1019.91,108.17 1024.21,108.23 1028.51,108.70 1032.81,109.55 1037.11,110.58 1041.41,111.22 1045.71,111.47 1050.01,111.46 1054.31,111.37 1058.61,110.87 1062.92,110.28 1067.22,110.07 1071.52,110.25 1075.82,110.84 1080.12,111.35 1084.42,111.47 1088.72,111.48 1093.02,111.48 1097.32,111.48 1101.62,111.48 1105.92,111.48 1110.22,111.48 1112.00,412.00"/>
  <text x="580" y="450" font-family="Segoe UI, Arial" font-size="12" fill="#475569">Time [s] [0.000 .. 14.350]</text>
  <text x="8" y="230" transform="rotate(-90 8 230)" font-family="Segoe UI, Arial" font-size="12" fill="#475569">Path speed sd [0.000 .. 0.123]</text>
</svg>