<svg xmlns="http://www.w3.org/2000/svg" width="1160" height="460" viewBox="0 0 1160 460">
  <rect width="100%" height="100%" fill="#f8fbff"/>
  <text x="48" y="26" font-family="Segoe UI, Arial" font-size="18" fill="#1f2937" font-weight="700">Path Profile s(t) (Demo Run)</text>
  <line x1="48" y1="412" x2="1112" y2="412" stroke="#94a3b8" stroke-width="1"/>
  <line x1="48" y1="48" x2="48" y2="412" stroke="#94a3b8" stroke-width="1"/>
  <polyline fill="none" stroke="#16a34a" stroke-width="2" points="48.00,412.00 52.30,412.00 56.60,412.00 60.90,411.99 65.20,411.97 69.50,411.94 73.80,411.90 78.10,411.84 82.40,411.76 86.70,411.65 91.00,411.53 95.31,411.38 99.61,411.20 103.91,411.00 108.21,410.77 112.51,410.52 116.81,410.25 121.11,409.95 125.41,409.63 129.71,409.28 134.01,408.91 138.31,408.51 142.61,408.09 146.91,407.65 151.21,407.18 155.51,406.68 159.81,406.16 164.11,405.62 168.41,405.05 172.71,404.46 177.01,403.84 181.32,403.20 185.62,402.54 189.92,401.85 194.22,401.13 198.52,400.39 202.82,399.63 207.12,398.84 211.42,398.03 215.72,397.19 220.02,396.33 224.32,395.46 228.62,394.57 232.92,393.67 237.22,392.76 241.52,391.84 245.82,390.92 250.12,390.00 254.42,389.09 258.72,388.17 263.02,387.27 267.32,386.38 271.63,385.50 275.93,384.63 280.23,383.79 284.53,382.97 288.83,382.17 293.13,381.39 297.43,380.64 301.73,379.92 306.03,379.21 310.33,378.51 314.63,377.83 318.93,377.16 323.23,376.50 327.53,375.84 331.83,375.19 336.13,374.53 340.43,373.87 344.73,373.20 349.03,372.53 353.33,371.84 357.64,371.13 361.94,370.41 366.24,369.67 370.54,368.90 374.84,368.11 379.14,367.29 383.44,366.45 387.74,365.58 392.04,364.70 396.34,363.78 400.64,362.84 404.94,361.88 409.24,360.89 413.54,359.88 417.84,358.84 422.14,357.78 426.44,356.70 430.74,355.59 435.04,354.46 439.34,353.32 443.64,352.17 447.95,351.00 452.25,349.82 456.55,348.65 460.85,347.46 465.15,346.28 469.45,345.11 473.75,343.94 478.05,342.78 482.35,341.63 486.65,340.49 490.95,339.38 495.25,338.27 499.55,337.17 503.85,336.08 508.15,334.99 512.45,333.90 516.75,332.80 521.05,331.71 525.35,330.60 529.65,329.48 533.96,328.35 538.26,327.20 542.56,326.04 546.86,324.85 551.16,323.63 555.46,322.39 559.76,321.13 564.06,319.84 568.36,318.53 572.66,317.19 576.96,315.83 581.26,314.44 585.56,313.03 589.86,311.60 594.16,310.14 598.46,308.66 602.76,307.15 607.06,305.62 611.36,304.06 615.66,302.48 619.96,300.87 624.27,299.24 628.57,297.58 632.87,295.90 637.17,294.20 641.47,292.47 645.77,290.72 650.07,288.94 654.37,287.14 658.67,285.31 662.97,283.46 667.27,281.59 671.57,279.69 675.87,277.76 680.17,275.81 684.47,273.84 688.77,271.84 693.07,269.82 697.37,267.77 701.67,265.70 705.97,263.60 710.28,261.48 714.58,259.34 718.88,257.17 723.18,254.97 727.48,252.76 731.78,250.51 736.08,248.25 740.38,245.95 744.68,243.64 748.98,241.30 753.28,238.93 757.58,236.54 761.88,234.13 766.18,231.69 770.48,229.22 774.78,226.74 779.08,224.22 783.38,221.69 787.68,219.14 791.98,216.57 796.28,213.99 800.59,211.40 804.89,208.81 809.19,206.20 813.49,203.60 817.79,201.00 822.09,198.40 826.39,195.81 830.69,193.23 834.99,190.67 839.29,188.11 843.59,185.58 847.89,183.07 852.19,180.58 856.49,178.12 860.79,175.68 865.09,173.26 869.39,170.87 873.69,168.51 877.99,166.16 882.29,163.85 886.60,161.56 890.90,159.29 895.20,157.04 899.50,154.82 903.80,152.62 908.10,150.43 912.40,148.26 916.70,146.09 921.00,143.94 925.30,141.79 929.60,139.64 933.90,137.49 938.20,135.34 942.50,133.18 946.80,131.01 951.10,128.83 955.40,126.64 959.70,124.45 964.00,122.26 968.30,120.06 972.60,117.88 976.91,115.69 981.21,113.52 985.51,111.36 989.81,109.21 994.11,107.06 998.41,104.91 1002.71,102.76 1007.01,100.60 1011.31,98.44 1015.61,96.27 1019.91,94.10 1024.21,91.93 1028.51,89.76 1032.81,87.59 1037.11,85.43 1041.41,83.28 1045.71,81.13 1050.01,78.98 1054.31,76.83 1058.61,74.68 1062.92,72.53 1067.22,70.37 1071.52,68.21 1075.82,66.06 1080.12,63.90 1084.42,61.76 1088.72,59.61 1093.02,57.46 1097.32,55.31 1101.62,53.16 1105.92,51.01 1110.22,48.86 1112.00,48.00"/>
  <text x="580" y="450" font-family="Segoe UI, Arial" font-size="12" fill="#475569">Time [s] [0.000 .. 14.350]</text>
  <text x="8" y="230" transform="rotate(-90 8 230)" font-family="Segoe UI, Arial" font-size="12" fill="#475569">Path coordinate s [0.000 .. 1.000]</text>
</svg>