<svg xmlns="http://www.w3.org/2000/svg" width="1160" height="460" viewBox="0 0 1160 460">
  <rect width="100%" height="100%" fill="#f8fbff"/>
  <text x="48" y="26" font-family="Segoe UI, Arial" font-size="18" fill="#1f2937" font-weight="700">Path Speed sd(t) (Demo Run)</text>
  <line x1="48" y1="412" x2="1112" y2="412" stroke="#94a3b8" stroke-width="1"/>
  <line x1="48" y1="48" x2="48" y2="412" stroke="#94a3b8" stroke-width="1"/>
  <polyline fill="none" stroke="#dc2626" stroke-width="2" points="48.00,412.00 52.32,411.76 56.65,411.04 60.97,409.84 65.29,408.17 69.61,406.01 73.94,403.37 78.26,400.26 82.58,396.66 86.91,392.70 91.23,388.70 95.55,384.71 99.87,380.71 104.20,376.72 108.52,372.73 112.84,368.73 117.17,364.74 121.49,360.74 125.81,356.75 130.13,352.76 134.46,348.76 138.78,344.77 143.10,340.77 147.43,336.78 151.75,332.79 156.07,328.79 160.39,324.80 164.72,320.80 169.04,316.81 173.36,312.82 177.69,308.82 182.01,304.83 186.33,300.83 190.65,296.84 194.98,292.85 199.30,288.85 203.62,284.86 207.95,280.87 212.27,277.21 216.59,274.03 220.91,271.33 225.24,269.11 229.56,267.37 233.88,266.10 238.21,265.32 242.53,265.01 246.85,265.19 251.17,265.84 255.50,266.98 259.82,268.59 264.14,270.68 268.47,273.25 272.79,276.30 277.11,279.83 281.43,283.77 285.76,287.76 290.08,291.74 294.40,295.38 298.73,298.54 303.05,301.22 307.37,303.42 311.69,305.14 316.02,306.38 320.34,307.15 324.66,307.43 328.99,307.24 333.31,306.57 337.63,305.42 341.95,303.79 346.28,301.68 350.60,299.09 354.92,296.02 359.25,292.48 363.57,288.53 367.89,284.53 372.21,280.54 376.54,276.54 380.86,272.55 385.18,268.56 389.51,264.56 393.83,260.57 398.15,256.57 402.47,252.58 406.80,248.59 411.12,244.59 415.44,240.60 419.77,236.60 424.09,232.61 428.41,228.62 432.73,224.95 437.06,221.76 441.38,219.05 445.70,216.81 450.03,215.06 454.35,213.78 458.67,212.99 462.99,212.67 467.32,212.83 471.64,213.47 475.96,214.59 480.29,216.19 484.61,218.27 488.93,220.83 493.25,223.69 497.58,226.14 501.90,228.11 506.22,229.60 510.55,230.61 514.87,231.15 519.19,231.20 523.51,230.79 527.84,229.89 532.16,228.52 536.48,226.67 540.81,224.33 545.13,221.52 549.45,218.23 553.77,214.46 558.10,210.47 562.42,206.47 566.74,202.48 571.07,198.48 575.39,194.49 579.71,190.50 584.03,186.50 588.36,182.51 592.68,178.51 597.00,174.52 601.33,170.53 605.65,166.53 609.97,162.54 614.29,158.55 618.62,154.55 622.94,150.56 627.26,146.56 631.59,142.57 635.91,138.58 640.23,134.58 644.55,130.59 648.88,126.59 653.20,122.60 657.52,118.61 661.85,114.61 666.17,110.62 670.49,106.81 674.81,103.47 679.14,100.62 683.46,98.24 687.78,96.35 692.11,94.93 696.43,93.99 700.75,93.54 705.07,93.56 709.40,94.06 713.72,95.04 718.04,96.50 722.37,98.43 726.69,100.85 731.01,103.75 735.33,107.12 739.66,110.96 743.98,114.60 748.30,117.77 752.63,120.46 756.95,122.67 761.27,124.39 765.59,125.64 769.92,126.41 774.24,126.71 778.56,126.53 782.89,125.87 787.21,124.74 791.53,123.13 795.85,121.03 800.18,118.46 804.50,115.41 808.82,111.88 813.15,107.94 817.47,103.94 821.79,99.95 826.11,95.95 830.44,91.96 834.76,87.97 839.08,83.97 843.41,79.98 847.73,75.98 852.05,71.99 856.37,68.00 860.70,64.01 865.02,60.33 869.34,57.13 873.67,54.41 877.99,52.17 882.31,50.41 886.63,49.13 890.96,48.32 895.28,48.00 899.60,48.16 903.93,48.79 908.25,49.90 912.57,51.50 916.89,53.57 921.22,55.85 925.54,57.67 929.86,59.02 934.19,59.88 938.51,60.27 942.83,60.19 947.15,59.63 951.48,58.59 955.80,57.07 960.12,55.53 964.45,54.46 968.77,53.88 973.09,53.77 977.41,54.14 981.74,55.00 986.06,56.33 990.38,57.98 994.71,59.23 999.03,60.00 1003.35,60.29 1007.67,60.11 1012.00,59.46 1016.32,58.34 1020.64,57.37 1024.97,56.88 1029.29,56.87 1033.61,57.34 1037.93,58.29 1042.26,59.43 1046.58,60.10 1050.90,60.29 1055.23,60.29 1059.55,60.04 1063.87,59.34 1068.20,58.88 1072.52,58.89 1076.84,59.39 1081.16,60.07 1085.49,60.29 1089.81,60.29 1094.13,60.29 1098.46,60.29 1102.78,60.29 1107.10,60.29 1111.42,60.29 1112.00,412.00"/>
  <text x="580" y="450" font-family="Segoe UI, Arial" font-size="12" fill="#475569">Time [s] [0.000 .. 14.768]</text>
  <text x="8" y="230" transform="rotate(-90 8 230)" font-family="Segoe UI, Arial" font-size="12" fill="#475569">Path speed sd [0.000 .. 0.109]</text>
</svg>