<svg xmlns="http://www.w3.org/2000/svg" width="1160" height="460" viewBox="0 0 1160 460">
  <rect width="100%" height="100%" fill="#f8fbff"/>
  <text x="48" y="26" font-family="Segoe UI, Arial" font-size="18" fill="#1f2937" font-weight="700">MVC Upper Envelope (Demo Run)</text>
  <line x1="48" y1="412" x2="1112" y2="412" stroke="#94a3b8" stroke-width="1"/>
  <line x1="48" y1="48" x2="48" y2="412" stroke="#94a3b8" stroke-width="1"/>
  <polyline fill="none" stroke="#0b7ad1" stroke-width="2" points="48.00,182.95 53.07,183.18 58.13,183.42 63.20,183.66 68.25,183.90 73.31,184.15 78.36,184.39 83.40,184.64 88.44,184.88 93.48,185.13 98.52,185.38 103.55,185.63 108.57,185.88 113.59,186.13 118.61,186.38 123.62,186.64 128.63,186.89 133.64,187.15 138.64,187.41 143.64,187.67 148.63,187.92 153.62,188.15 158.60,188.22 163.59,187.88 168.59,186.83 173.61,185.16 178.66,183.48 183.73,182.43 188.82,182.10 193.90,182.21 198.98,182.46 204.06,182.75 209.13,183.04 214.20,183.34 219.26,183.64 224.32,183.94 229.37,184.24 234.42,184.54 239.46,184.84 244.50,185.14 249.53,185.45 254.56,185.75 259.58,186.06 264.60,186.37 269.62,186.68 274.62,186.95 279.63,186.95 284.64,185.73 289.70,181.00 294.88,214.53 300.29,220.73 305.99,168.89 311.95,122.93 318.04,117.52 324.18,116.19 330.33,116.28 336.47,116.68 342.61,117.12 348.74,117.57 354.86,118.02 360.98,118.47 367.08,118.93 373.19,119.38 379.28,119.84 385.36,120.31 391.44,120.77 397.51,121.24 403.58,121.70 409.63,122.18 415.68,122.65 421.72,123.12 427.75,123.60 433.78,124.08 439.80,124.56 445.81,125.05 451.81,125.54 457.80,126.02 463.79,126.51 469.76,127.01 475.73,127.50 481.70,128.00 487.65,128.50 493.60,129.00 499.53,129.50 505.46,130.00 511.39,130.51 517.30,131.01 523.20,131.52 529.10,132.03 534.99,132.55 540.87,133.06 546.74,133.58 552.61,134.10 558.46,134.61 564.31,135.13 570.15,135.61 575.98,135.76 581.80,134.45 587.61,129.06 593.41,167.25 599.21,195.85 605.00,161.44 610.81,57.24 616.62,49.88 622.43,48.00 628.23,48.03 634.03,48.46 639.82,48.95 645.60,49.43 651.38,49.92 657.15,50.41 662.91,50.91 668.67,51.40 674.43,51.89 680.17,52.39 685.91,52.88 691.64,53.38 697.37,53.87 703.09,54.37 708.81,54.87 714.51,55.42 720.21,56.30 725.88,58.62 731.46,64.84 736.83,129.54 741.86,174.05 746.51,172.28 750.85,126.92 755.02,132.73 759.13,134.72 763.23,135.41 767.31,135.85 771.39,136.25 775.46,136.65 779.53,137.05 783.60,137.45 787.66,137.85 791.72,138.25 795.77,138.65 799.82,139.05 803.86,139.45 807.90,139.85 811.94,140.25 815.97,140.65 819.99,141.05 824.01,141.45 828.03,141.83 832.04,142.13 836.05,174.80 840.06,240.53 844.08,248.52 848.09,201.21 852.12,141.15 856.14,141.33 860.16,141.66 864.17,142.04 868.18,142.44 872.18,142.83 876.19,143.22 880.18,143.61 884.17,144.00 888.16,144.39 892.14,144.79 896.12,145.18 900.10,145.57 904.07,145.96 908.03,146.35 911.99,146.73 915.95,147.12 919.90,147.51 923.85,147.93 927.79,148.52 931.71,149.86 935.58,155.54 939.32,240.01 942.85,267.41 946.15,244.20 949.28,185.27 952.31,188.26 955.30,189.33 958.27,189.77 961.25,190.09 964.22,190.39 967.19,190.70 970.16,191.00 973.12,191.30 976.08,191.61 979.04,191.91 981.99,192.21 984.94,192.51 987.89,192.81 990.84,193.11 993.78,193.41 996.72,193.71 999.66,194.01 1002.59,194.38 1005.52,195.18 1008.43,291.47 1011.30,368.60 1014.06,403.44 1016.66,404.38 1019.08,387.88 1021.38,339.45 1023.61,268.70 1025.81,270.01 1028.01,270.45 1030.20,270.71 1032.39,270.95 1034.58,271.19 1036.77,271.43 1038.95,271.67 1041.14,271.91 1043.32,272.15 1045.49,272.39 1047.67,272.63 1049.84,272.87 1052.01,273.11 1054.18,273.35 1056.35,273.59 1058.51,273.84 1060.67,274.13 1062.83,274.78 1064.97,335.40 1067.08,388.46 1069.11,409.27 1071.01,412.00 1072.80,396.75 1074.51,350.91 1076.19,324.80 1077.86,325.47 1079.52,325.71 1081.18,325.88 1082.83,326.04 1084.49,326.20 1086.14,326.36 1087.80,326.52 1089.45,326.67 1091.10,326.83 1092.75,326.99 1094.39,327.15 1096.04,327.31 1097.68,327.47 1099.32,327.63 1100.97,327.79 1102.60,327.95 1104.24,328.11 1105.88,328.27 1107.51,328.43 1109.15,328.59 1110.78,328.75 1112.00,328.87"/>
  <text x="580" y="450" font-family="Segoe UI, Arial" font-size="12" fill="#475569">Path coordinate s [0.000 .. 1.000]</text>
  <text x="8" y="230" transform="rotate(-90 8 230)" font-family="Segoe UI, Arial" font-size="12" fill="#475569">Velocity upper bound [0.323 .. 1.702]</text>
</svg>